<svg xmlns="http://www.w3.org/2000/svg" xmlns:xlink="http://www.w3.org/1999/xlink" version="1.1" id="Layer_1" x="0px" y="0px" viewBox="0 0 290.626 290.626" style="enable-background:new 0 0 512 512; vertical-align: middle; margin-top: -4px; fill:rgba(78,92,110,0.4); width:45px;" xml:space="preserve" width="45px" height="45px">
                                                    <g>
                                                        <g>
                                                            <g>
                                                                <path d="M281.251,267.188V112.5h9.374V89.063H243.75V75h9.375V51.563h-32.813V37.5h9.375V14.063H60.938V37.5h9.375v14.063H37.5     V75h9.375v14.063H0V112.5h9.375v154.688H0v9.375h70.313h150h70.313v-9.375H281.251z M46.875,267.188H18.75V112.5h28.125V267.188z      M46.875,103.126h-37.5v-4.688h37.5V103.126z M70.313,267.188H56.25V112.5V89.063V75h14.063V267.188z M70.313,65.626H46.875     v-4.688h23.438V65.626z M70.313,23.438h150v4.688h-150V23.438z M140.626,267.188h-0.001H98.438v-56.25h42.188V267.188z      M192.188,267.188H150v-56.25h42.188V267.188z M210.938,267.188h-9.375v-65.625h-112.5v65.625h-9.375v-75h131.25V267.188z      M210.938,51.563V75v107.813H79.688V75V51.563V37.5h131.25V51.563z M220.312,65.626v-4.688h23.438v4.688H220.312z      M234.376,89.063V112.5v154.688h-14.063V75h14.063V89.063z M271.875,267.188H243.75V112.5h28.125V267.188z M281.25,103.126h-37.5     v-4.688h37.5V103.126z"/>
                                                                <path d="M201.563,65.625h-112.5v65.625h112.5V65.625z M192.188,121.875h-93.75V75h93.75V121.875z"/>
                                                                <rect x="107.813" y="84.375" width="75" height="9.375"/>
                                                                <rect x="173.438" y="103.125" width="9.375" height="9.375"/>
                                                                <rect x="107.813" y="103.125" width="56.25" height="9.375"/>
                                                                <rect x="126.563" y="225" width="9.375" height="23.438"/>
                                                                <rect x="154.688" y="225" width="9.375" height="23.438"/>
                                                            </g>
                                                        </g>
                                                    </g>
                                                    </svg>