<?xml version='1.0' encoding='iso-8859-1'?>
<!DOCTYPE svg PUBLIC '-//W3C//DTD SVG 1.1//EN' 'http://www.w3.org/Graphics/SVG/1.1/DTD/svg11.dtd'>
<svg version="1.1" xmlns="http://www.w3.org/2000/svg" viewBox="0 0 449.199 449.199" xmlns:xlink="http://www.w3.org/1999/xlink" enable-background="new 0 0 449.199 449.199">
  <g>
    <path d="m413.797,214.6h-89.185c2.261-4.659 3.531-9.885 3.531-15.402v-136.283c0-19.521-15.881-35.402-35.401-35.402h-136.284c-19.521,0-35.402,15.881-35.402,35.402v136.283c0,5.517 1.27,10.743 3.531,15.402h-89.185c-19.52,2.84217e-14-35.402,15.881-35.402,35.402v136.283c0,19.521 15.882,35.402 35.402,35.402h136.282c19.521,0 35.402-15.881 35.402-35.402v-136.283c0-5.517-1.27-10.743-3.531-15.402h42.087c-2.261,4.659-3.531,9.885-3.531,15.402v136.283c0,19.521 15.882,35.402 35.402,35.402h136.282c19.521,0 35.402-15.881 35.402-35.402v-136.283c0.002-19.521-15.88-35.402-35.4-35.402zm-272.741-15.402v-136.283c-2.84217e-14-8.493 6.909-15.402 15.402-15.402h136.283c8.492,0 15.401,6.909 15.401,15.402v136.283c0,8.493-6.909,15.402-15.401,15.402h-136.283c-8.493,2.84217e-14-15.402-6.91-15.402-15.402zm46.031,50.804v136.283c0,8.493-6.909,15.402-15.402,15.402h-136.283c-8.493,0-15.402-6.909-15.402-15.402v-136.283c0-8.493 6.909-15.402 15.402-15.402h136.282c8.494-2.84217e-14 15.403,6.909 15.403,15.402zm242.112,136.283c0,8.493-6.909,15.402-15.402,15.402h-136.282c-8.493,0-15.402-6.909-15.402-15.402v-136.283c0-8.493 6.909-15.402 15.402-15.402h136.282c8.493,0 15.402,6.909 15.402,15.402v136.283z"/>
    <path d="m368.018,313.364c3.12-4.913 4.936-10.731 4.936-16.969 0-17.506-14.242-31.749-31.749-31.749h-12.349c-5.522,0-10,4.477-10,10v43.498 43.498c0,5.523 4.478,10 10,10h21.749c17.507,0 31.749-14.242 31.749-31.749 0-11.081-5.709-20.848-14.336-26.529zm-29.162-28.719h2.349c6.479,0 11.749,5.271 11.749,11.749 0,6.479-5.271,11.749-11.749,11.749h-2.349v-23.498zm11.749,66.996h-11.749v-23.498h11.749c6.479,0 11.749,5.271 11.749,11.749-5.68434e-14,6.478-5.27,11.749-11.749,11.749z"/>
    <path d="m103.543,284.648c6.479,0 11.75,5.271 11.75,11.75 0,5.523 4.478,10 10,10s10-4.477 10-10c0-17.507-14.243-31.75-31.75-31.75s-31.75,14.243-31.75,31.75v43.49c0,17.507 14.243,31.75 31.75,31.75s31.75-14.243 31.75-31.75c0-5.523-4.478-10-10-10s-10,4.477-10,10c0,6.479-5.271,11.75-11.75,11.75s-11.75-5.271-11.75-11.75v-43.49c0-6.479 5.271-11.75 11.75-11.75z"/>
    <path d="m199.597,184.235c5.348,1.383 10.802-1.831 12.186-7.177l3.258-12.598h19.118l3.258,12.598c1.166,4.508 5.226,7.499 9.675,7.499 0.828,0 1.671-0.104 2.511-0.321 5.347-1.383 8.561-6.838 7.178-12.185l-22.499-86.996c-1.142-4.413-5.123-7.496-9.682-7.496s-8.54,3.083-9.682,7.496l-22.499,86.996c-1.383,5.346 1.831,10.802 7.178,12.184zm29.389-39.775h-8.774l4.387-16.963 4.387,16.963z"/>
  </g>
</svg>
