<?xml version="1.0" encoding="iso-8859-1"?>
<!-- Generator: Adobe Illustrator 19.0.0, SVG Export Plug-In . SVG Version: 6.00 Build 0)  -->
<svg version="1.1" id="Capa_1" xmlns="http://www.w3.org/2000/svg" xmlns:xlink="http://www.w3.org/1999/xlink" x="0px" y="0px"
	 viewBox="0 0 496 496" style="enable-background:new 0 0 496 496;" xml:space="preserve">
<g>
	<g>
		<path d="M112,48H64v104h16v-40h32c17.648,0,32-14.352,32-32S129.648,48,112,48z M112,96H80V64h32c8.824,0,16,7.176,16,16
			S120.824,96,112,96z"/>
	</g>
</g>
<g>
	<g>
		<path d="M496,448V240H332.688l-80.528,80.528l-66.736,11.128C166.056,334.88,152,351.48,152,371.112V448h96.64
			c1.792,12.448,7.648,23.592,16.248,32H136V328h-16V188.84c41.336-10.696,72-48.208,72-92.84c0-52.936-43.064-96-96-96
			C43.064,0,0,43.064,0,96c0,44.632,30.664,82.144,72,92.84V328H56v152H32v16h432v-16H343.112c8.592-8.408,14.448-19.552,16.248-32
			H496z M16,96c0-44.112,35.888-80,80-80s80,35.888,80,80s-35.888,80-80,80S16,140.112,16,96z M104,191.592V328H88V191.592
			c2.648,0.224,5.296,0.408,8,0.408S101.352,191.816,104,191.592z M120,480H72V376h48V480z M120,360H72v-16h48V360z M248.64,432H168
			v-16h85.48C251.104,420.976,249.456,426.352,248.64,432z M304,480c-22.056,0-40-17.944-40-40c0-22.056,17.944-40,40-40
			c22.056,0,40,17.944,40,40C344,462.056,326.056,480,304,480z M344,400v0.888C333.824,390.48,319.664,384,304,384
			s-29.824,6.48-40,16.888V400h-96v-28.888c0-11.784,8.432-21.736,20.056-23.672l71.792-11.968L339.312,256H480v144h-72v16h72v16
			H359.36c-0.816-5.648-2.464-11.024-4.84-16H392v-16H344z"/>
	</g>
</g>
<g>
	<g>
		<path d="M348.688,272l-64,64H464v-64H348.688z M448,320H323.312l32-32H448V320z"/>
	</g>
</g>
<g>
	<g>
		<path d="M304,416c-13.232,0-24,10.768-24,24s10.768,24,24,24s24-10.768,24-24S317.232,416,304,416z M304,448c-4.408,0-8-3.584-8-8
			c0-4.416,3.592-8,8-8c4.408,0,8,3.584,8,8C312,444.416,308.408,448,304,448z"/>
	</g>
</g>
<g>
	<g>
		<rect x="408" y="352" width="56" height="16"/>
	</g>
</g>
<g>
	<g>
		<rect y="480" width="16" height="16"/>
	</g>
</g>
<g>
	<g>
		<rect x="480" y="480" width="16" height="16"/>
	</g>
</g>
<g>
</g>
<g>
</g>
<g>
</g>
<g>
</g>
<g>
</g>
<g>
</g>
<g>
</g>
<g>
</g>
<g>
</g>
<g>
</g>
<g>
</g>
<g>
</g>
<g>
</g>
<g>
</g>
<g>
</g>
</svg>
