<?xml version="1.0" encoding="iso-8859-1"?>
<!-- Generator: Adobe Illustrator 19.0.0, SVG Export Plug-In . SVG Version: 6.00 Build 0)  -->
<svg version="1.1" id="Capa_1" xmlns="http://www.w3.org/2000/svg" xmlns:xlink="http://www.w3.org/1999/xlink" x="0px" y="0px"
	 viewBox="0 0 480.002 480.002" style="enable-background:new 0 0 480.002 480.002;" xml:space="preserve">
<g>
	<g>
		<path d="M440.002,0.001h-288c-22.08,0.026-39.974,17.92-40,40v112h16v-112c0-13.255,10.745-24,24-24h288c13.255,0,24,10.745,24,24
			v184h-248v16h248v16c0,13.255-10.745,24-24,24h-176v16h57.752l12,48h-69.752v16h112v-16h-25.76l-12-48h101.76
			c22.08-0.026,39.974-17.92,40-40v-216C479.975,17.92,462.082,0.027,440.002,0.001z"/>
	</g>
</g>
<g>
	<g>
		<rect x="144.002" y="32.001" width="16" height="16"/>
	</g>
</g>
<g>
	<g>
		<rect x="176.002" y="32.001" width="16" height="16"/>
	</g>
</g>
<g>
	<g>
		<rect x="208.002" y="32.001" width="16" height="16"/>
	</g>
</g>
<g>
	<g>
		<rect x="144.002" y="64.001" width="16" height="88"/>
	</g>
</g>
<g>
	<g>
		<rect x="216.002" y="192.001" width="232" height="16"/>
	</g>
</g>
<g>
	<g>
		<rect x="176.002" y="144.001" width="16" height="16"/>
	</g>
</g>
<g>
	<g>
		<rect x="208.002" y="136.001" width="16" height="40"/>
	</g>
</g>
<g>
	<g>
		<rect x="240.002" y="144.001" width="16" height="32"/>
	</g>
</g>
<g>
	<g>
		<rect x="272.002" y="120.001" width="16" height="56"/>
	</g>
</g>
<g>
	<g>
		<rect x="304.002" y="104.001" width="16" height="72"/>
	</g>
</g>
<g>
	<g>
		<rect x="336.002" y="120.001" width="16" height="56"/>
	</g>
</g>
<g>
	<g>
		<rect x="368.002" y="88.001" width="16" height="88"/>
	</g>
</g>
<g>
	<g>
		<rect x="400.002" y="72.001" width="16" height="104"/>
	</g>
</g>
<g>
	<g>
		<rect x="432.002" y="64.001" width="16" height="112"/>
	</g>
</g>
<g>
	<g>
		<path d="M266.802,438.401l-18.8-25.064v-77.336c-0.069-45.856-28.057-87.047-70.664-104l21.76-41.832
			c1.894-3.664,0.692-8.167-2.776-10.4l-8-5.136c-12.322-7.811-27.793-8.738-40.96-2.456c-7.177,3.415-15.511,3.415-22.688,0
			c-13.169-6.285-28.644-5.358-40.968,2.456l-8,5.136c-3.468,2.233-4.67,6.736-2.776,10.4l21.736,41.832
			c-42.607,16.953-70.595,58.144-70.664,104v77.336l-18.8,25.064c-8.616,11.488-6.288,27.784,5.2,36.4
			c4.501,3.375,9.974,5.2,15.6,5.2h220c14.355,0.009,25.999-11.621,26.008-25.976C272.013,448.39,270.185,442.907,266.802,438.401z
			 M90.474,189.265l1.848-1.184c7.641-4.844,17.238-5.415,25.4-1.512c11.565,5.504,24.995,5.504,36.56,0
			c8.159-3.903,17.753-3.332,25.392,1.512l1.856,1.184l-19.68,37.864c-16.98-4.171-34.716-4.171-51.696,0L90.474,189.265z
			 M252.026,461.993c-1.736,1.307-3.851,2.012-6.024,2.008h-220c-5.523,0-10-4.477-10-10c0-2.164,0.702-4.269,2-6l20.4-27.2
			c1.039-1.385,1.6-3.069,1.6-4.8v-80c0-53.019,42.981-96,96-96s96,42.981,96,96v80c0,1.731,0.561,3.415,1.6,4.8l20.4,27.2
			C257.32,452.41,256.435,458.675,252.026,461.993z"/>
	</g>
</g>
<g>
	<g>
		<path d="M155.378,356.745l-31.592-15.8c-3.376-1.686-4.745-5.789-3.059-9.165c1.156-2.314,3.52-3.777,6.107-3.779h18.336
			c3.77,0.009,6.823,3.062,6.832,6.832v9.168h16v-9.168c-0.013-12.604-10.228-22.819-22.832-22.832h-1.168v-16h-16v16h-1.168
			c-12.61-0.001-22.833,10.22-22.834,22.83c-0.001,8.651,4.888,16.559,12.626,20.426l31.592,15.8
			c3.376,1.686,4.745,5.789,3.059,9.165c-1.156,2.314-3.52,3.777-6.107,3.779h-18.336c-3.77-0.009-6.823-3.062-6.832-6.832v-1.168
			h-16v1.168c0.013,12.604,10.228,22.819,22.832,22.832h1.168v16h16v-16h1.168c12.61,0.001,22.833-10.22,22.834-22.83
			C168.004,368.52,163.116,360.612,155.378,356.745z"/>
	</g>
</g>
<g>
	<g>
		<path d="M308.002,376.001c-19.882,0-36,16.118-36,36s16.118,36,36,36s36-16.118,36-36
			C343.979,392.128,327.875,376.023,308.002,376.001z M308.002,432.001c-11.046,0-20-8.954-20-20c0-11.046,8.954-20,20-20
			c11.046,0,20,8.954,20,20C328.002,423.046,319.047,432.001,308.002,432.001z"/>
	</g>
</g>
<g>
	<g>
		<path d="M388.002,408.001c-19.882,0-36,16.118-36,36s16.118,36,36,36s36-16.118,36-36
			C423.979,424.128,407.875,408.023,388.002,408.001z M388.002,464.001c-11.046,0-20-8.954-20-20c0-11.046,8.954-20,20-20
			c11.046,0,20,8.954,20,20C408.002,455.046,399.047,464.001,388.002,464.001z"/>
	</g>
</g>
<g>
	<g>
		<path d="M79.868,126.667c-0.568-3.357-3.197-5.986-6.554-6.554c-13.034-2.177-23.247-12.39-25.424-25.424
			c-0.737-4.356-4.866-7.291-9.222-6.554c-3.357,0.568-5.986,3.197-6.554,6.554c-2.177,13.034-12.39,23.247-25.424,25.424
			c-4.356,0.737-7.291,4.866-6.554,9.222c0.568,3.357,3.197,5.986,6.554,6.554c13.034,2.177,23.247,12.39,25.424,25.424
			c0.737,4.356,4.866,7.291,9.222,6.554c3.357-0.568,5.986-3.197,6.554-6.554c2.177-13.034,12.39-23.247,25.424-25.424
			C77.67,135.152,80.604,131.023,79.868,126.667z M40.002,139.425c-3.119-4.439-6.985-8.305-11.424-11.424
			c4.439-3.119,8.305-6.985,11.424-11.424c3.119,4.439,6.985,8.305,11.424,11.424C46.986,131.12,43.121,134.985,40.002,139.425z"/>
	</g>
</g>
<g>
</g>
<g>
</g>
<g>
</g>
<g>
</g>
<g>
</g>
<g>
</g>
<g>
</g>
<g>
</g>
<g>
</g>
<g>
</g>
<g>
</g>
<g>
</g>
<g>
</g>
<g>
</g>
<g>
</g>
</svg>
