<svg height="496pt" viewBox="0 0 496 496" width="496pt" xmlns="http://www.w3.org/2000/svg"><path d="m472 112h-8v-104c0-4.414062-3.585938-8-8-8h-416c-4.414062 0-8 3.585938-8 8v104h-8c-13.230469 0-24 10.769531-24 24v240c0 13.230469 10.769531 24 24 24h160v32h-8c-30.878906 0-56 25.121094-56 56 0 4.414062 3.585938 8 8 8h240c4.414062 0 8-3.585938 8-8 0-30.878906-25.121094-56-56-56h-8v-32h160c13.230469 0 24-10.769531 24-24v-240c0-13.230469-10.769531-24-24-24zm-424-32h400v272h-400zm400-64v48h-400v-48zm-88.808594 464h-222.382812c3.710937-18.230469 19.878906-32 39.191406-32h144c19.320312 0 35.480469 13.769531 39.191406 32zm-63.191406-48h-96v-32h96zm184-56c0 4.40625-3.59375 8-8 8h-448c-4.40625 0-8-3.59375-8-8v-240c0-4.40625 3.59375-8 8-8h8v232c0 4.414062 3.585938 8 8 8h416c4.414062 0 8-3.585938 8-8v-232h8c4.40625 0 8 3.59375 8 8zm0 0"/><path d="m352 96c-18.246094 0-35.039062 6.207031-48.511719 16.535156-7.046875-3.183594-14.425781-5.550781-22.039062-6.949218l-2.898438 15.734374c4.160157.769532 8.21875 1.925782 12.183594 3.335938-11.671875 13.902344-18.734375 31.808594-18.734375 51.34375 0 34.710938 22.265625 64.246094 53.230469 75.296875-3.140625 3.75-6.527344 7.289063-10.328125 10.421875l10.1875 12.335938c6.589844-5.4375 12.34375-11.742188 17.261718-18.695313 3.175782.382813 6.375.640625 9.648438.640625 44.113281 0 80-35.886719 80-80s-35.886719-80-80-80zm63.449219 72h-31.601563c-.6875-19.144531-3.847656-38.265625-9.734375-51.984375 22 8.144531 38.320313 27.992187 41.335938 51.984375zm-63.449219 72c-3.839844 0-14.464844-19.222656-15.847656-56h31.695312c-1.382812 36.777344-12.007812 56-15.847656 56zm-63.449219-72c3.015625-23.992188 19.335938-43.839844 41.335938-51.984375-5.886719 13.71875-9.046875 32.839844-9.734375 51.984375zm47.601563 0c1.375-36.777344 12-56 15.847656-56s14.464844 19.222656 15.847656 56zm-47.601563 16h31.601563c.6875 19.144531 3.847656 38.265625 9.734375 51.984375-22-8.144531-38.320313-27.992187-41.335938-51.984375zm85.5625 51.984375c5.886719-13.71875 9.046875-32.832031 9.734375-51.984375h31.601563c-3.015625 23.992188-19.335938 43.839844-41.335938 51.984375zm0 0"/><path d="m64 32h16v16h-16zm0 0"/><path d="m96 32h16v16h-16zm0 0"/><path d="m128 32h16v16h-16zm0 0"/><path d="m253.0625 209.808594-59.140625-48.394532c3.253906-5.894531 7.230469-11.375 11.894531-16.324218l-11.640625-10.976563c-4.917969 5.214844-9.152343 10.949219-12.769531 17.0625l-16.335938-13.367187c-2.941406-2.417969-7.183593-2.417969-10.132812 0l-88 72c-2.617188 2.144531-3.609375 5.695312-2.472656 8.878906 1.136718 3.183594 4.152344 5.3125 7.535156 5.3125h8v104c0 4.414062 3.585938 8 8 8h144c4.414062 0 8-3.585938 8-8v-104h8c3.382812 0 6.398438-2.128906 7.535156-5.3125 1.136719-3.183594.144532-6.734375-2.472656-8.878906zm-93.0625-55.472656 65.59375 53.664062h-131.1875zm16 165.664062h-32v-48h32zm48 0h-32v-56c0-4.414062-3.585938-8-8-8h-48c-4.414062 0-8 3.585938-8 8v56h-32v-96h128zm0 0"/><path d="m256.71875 279.671875-1.4375 15.9375c2.871094.253906 5.78125.390625 8.71875.390625s5.847656-.136719 8.71875-.390625l-1.445312-15.9375c-4.785157.441406-9.753907.441406-14.554688 0zm0 0"/><path d="m285.824219 276.992188 4.359375 15.398437c6.023437-1.703125 11.894531-4.015625 17.472656-6.863281l-7.289062-14.238282c-4.640626 2.359376-9.535157 4.277344-14.542969 5.703126zm0 0"/><path d="m264 120v-16c-5.863281 0-11.734375.527344-17.449219 1.585938l2.890625 15.734374c4.757813-.878906 9.664063-1.320312 14.558594-1.320312zm0 0"/><path d="m234.910156 125.457031-5.820312-14.90625c-6.097656 2.386719-11.96875 5.402344-17.457032 8.984375l8.734376 13.410156c4.578124-2.992187 9.464843-5.511718 14.542968-7.488281zm0 0"/></svg>