<svg xmlns="http://www.w3.org/2000/svg" xmlns:xlink="http://www.w3.org/1999/xlink"
                             version="1.1" id="Capa_1" x="0px" y="0px" viewBox="0 0 59.314 59.315"
                             style="enable-background:new 0 0 512.001 512.001; fill:#7b7b7b; vertical-align: middle;"
                             xml:space="preserve" width="20px" height="20px">
                        <g>
                            <g>
                                <path d="M58.314,6.245H1c-0.553,0-1,0.447-1,1V41.5c0,0.553,0.447,1,1,1h16.961v4.432c0,0.553,0.447,1,1,1h21.396    c0.553,0,1-0.447,1-1V42.5h16.957c0.553,0,1-0.447,1-1V7.245C59.314,6.693,58.867,6.245,58.314,6.245z M57.314,8.245v25.229H2    V8.245H57.314z M39.355,45.932H19.961V42.5h19.396v3.432H39.355z M40.355,40.5H18.961H2v-5.027h55.314V40.5H40.355z"/>
                                <path d="M46.853,53.07c0.554,0,1-0.446,1-1s-0.446-1-1-1h-34.39c-0.553,0-1,0.446-1,1s0.447,1,1,1H46.853z"/>
                                <path d="M7.653,30.165l8.708-8.373l8.583,4.126c0.313,0.15,0.682,0.128,0.974-0.06l6.337-4.062l11.882,8.462    c0.171,0.121,0.374,0.186,0.58,0.186c0.082,0,0.165-0.01,0.246-0.029c0.283-0.072,0.523-0.268,0.652-0.531l8.287-16.938    c0.242-0.496,0.037-1.095-0.459-1.338c-0.496-0.243-1.095-0.037-1.338,0.459l-7.77,15.88l-11.473-8.171    c-0.332-0.236-0.776-0.246-1.121-0.027l-6.436,4.125l-8.706-4.185c-0.376-0.181-0.825-0.109-1.127,0.181l-9.209,8.854    c-0.397,0.383-0.41,1.016-0.027,1.414C6.622,30.535,7.254,30.547,7.653,30.165z"/>
                            </g>
                        </g>
                        </svg>