<svg xmlns="http://www.w3.org/2000/svg" xmlns:xlink="http://www.w3.org/1999/xlink"
                              version="1.1" id="Capa_1" x="0px" y="0px" viewBox="0 0 512 512"
                              style="enable-background:new 0 0 512 512; fill:#7b7b7b; vertical-align: middle;"
                              xml:space="preserve" width="20px" height="20px">
                          <g>
                              <g>
                                  <path d="M427.047,371.878C441.768,358.176,451,338.65,451,317c0-41.355-33.645-75-75-75c-41.355,0-75,33.645-75,75    c0,5.136,0.521,10.152,1.509,15h-2.347c-5.542-49.902-38.391-91.68-83.228-110.014C231.722,208.278,241,188.706,241,167    c0-41.355-33.645-75-75-75s-75,33.645-75,75c0,21.65,9.232,41.176,23.953,54.878c-46.02,18.568-79.562,61.451-84.354,112.499    C12.83,340.397,0,357.223,0,377v120c0,8.284,6.716,15,15,15c10.432,0,471.568,0,482,0c8.284,0,15-6.716,15-15    C512,440.473,476.815,391.958,427.047,371.878z M376,272c24.813,0,45,20.187,45,45s-20.187,45-45,45s-45-20.187-45-45    S351.187,272,376,272z M166,122c24.813,0,45,20.187,45,45s-20.187,45-45,45s-45-20.187-45-45S141.187,122,166,122z M166,242    c52.805,0,96.631,39.183,103.932,90H61.078C68.448,281.183,112.692,242,166,242z M30,377c0-8.271,6.729-15,15-15    c11.179,0,259.305,0,271.041,0c2.705,3.595,5.731,6.932,9.025,9.986c-12.275,5.019-23.65,11.794-33.814,20.014H30V377z     M241.838,482H30v-60.1h233.806C252.042,439.441,244.284,459.98,241.838,482z M272.068,482c7.301-50.817,51.127-90,103.932-90    c53.308,0,97.552,39.183,104.922,90H272.068z"/>
                              </g>
                          </g>
                          <g>
                              <g>
                                  <path d="M467,0H316c-24.813,0-45,20.187-45,45v62c0,19.556,12.539,36.239,30,42.43V197c0,6.067,3.654,11.537,9.26,13.858    c5.604,2.322,12.057,1.039,16.347-3.251L382.213,152H467c24.813,0,45-20.187,45-45V45C512,20.187,491.813,0,467,0z M482,107    c0,8.271-6.729,15-15,15h-91c-3.979,0-7.794,1.58-10.606,4.393L331,160.787V137c0-8.284-6.716-15-15-15c-8.271,0-15-6.729-15-15    V45c0-8.271,6.729-15,15-15h151c8.271,0,15,6.729,15,15V107z"/>
                              </g>
                          </g>
                          </svg>