<svg xmlns="http://www.w3.org/2000/svg" xmlns:xlink="http://www.w3.org/1999/xlink" version="1.1" id="Capa_1" x="0px" y="0px" viewBox="0 0 512 512" style="enable-background:new 0 0 512 512; fill:#7b7b7b; vertical-align: middle;" xml:space="preserve" width="20px" height="20px">
<g>
	<g>
		<path d="M482,40h-9.746v-6c0-18.748-15.252-34-34-34s-34,15.252-34,34v6h-90.127v-6c0-18.748-15.252-34-34-34s-34,15.252-34,34v6    H156v-6c0-18.748-15.252-34-34-34S88,15.252,88,34v6H30C13.458,40,0,53.458,0,70v264c0,16.542,13.458,30,30,30h452    c16.542,0,30-13.458,30-30V70C512,53.458,498.542,40,482,40z M424.254,34c0-7.72,6.28-14,14-14c7.72,0,14,6.28,14,14v6h-28V34z     M414,80c13.233,0,24,10.767,24,24v5h-48v-5C390,90.767,400.767,80,414,80z M266.127,34c0-7.72,6.28-14,14-14    c7.72,0,14,6.28,14,14v6h-28V34z M256.127,80c13.233,0,24,10.767,24,24v5h-48v-5C232.127,90.767,242.894,80,256.127,80z M108,34    c0-7.72,6.28-14,14-14c7.72,0,14,6.28,14,14v6h-28V34z M98,80c13.233,0,24,10.767,24,24v5H74v-5C74,90.767,84.767,80,98,80z     M492,334c0,5.514-4.486,10-10,10H30c-5.514,0-10-4.486-10-10V70c0-5.514,4.486-10,10-10h58v1.16C68.542,65.702,54,83.179,54,104    v15c0,5.523,4.477,10,10,10h68c5.523,0,10-4.477,10-10v-15c0-20.821-14.542-38.298-34-42.84V60h138.127v1.16    c-19.458,4.542-34,22.019-34,42.84v15c0,5.523,4.477,10,10,10h68c5.523,0,10-4.477,10-10v-15c0-20.821-14.542-38.298-34-42.84V60    h138.127v1.101C384.669,65.549,370,83.088,370,104v15c0,5.523,4.477,10,10,10h68c5.523,0,10-4.477,10-10v-15    c0-20.731-14.416-38.147-33.746-42.781V60H482c5.514,0,10,4.486,10,10V334z"/>
	</g>
</g>
<g>
	<g>
		<path d="M301.551,178.5h-27.078c-5.523,0-10,4.477-10,10v96c0,5.522,4.477,10,10,10h27.078c26.205,0,47.524-21.319,47.524-47.524    v-20.952C349.075,199.819,327.756,178.5,301.551,178.5z M329.075,246.976c0,15.176-12.347,27.524-27.524,27.524h-17.078v-76    h17.078c15.177,0,27.524,12.347,27.524,27.524V246.976z"/>
	</g>
</g>
<g>
	<g>
		<path d="M247.085,281.311l-32.3-96c-1.37-4.07-5.184-6.811-9.478-6.811s-8.108,2.741-9.478,6.811l-32.301,96    c-1.761,5.235,1.055,10.906,6.289,12.667c5.233,1.764,10.905-1.055,12.667-6.288l7.017-20.855h31.611l7.017,20.855    c1.406,4.177,5.301,6.813,9.477,6.813c1.057,0,2.132-0.169,3.19-0.525C246.03,292.217,248.846,286.546,247.085,281.311z     M196.23,246.833l9.076-26.976l9.076,26.976H196.23z"/>
	</g>
</g>
<g>
	<g>
		<path d="M448,384H320H192h-84.333c-5.523,0-10,4.478-10,10c0,5.522,4.477,10,10,10H182v98c0,5.522,4.477,10,10,10h128    c5.523,0,10-4.478,10-10v-98h118c5.523,0,10-4.478,10-10C458,388.478,453.523,384,448,384z M310,492H202v-88h108V492z"/>
	</g>
</g>
<g>
	<g>
		<path d="M71.07,386.93C69.21,385.07,66.63,384,64,384s-5.21,1.069-7.07,2.93C55.07,388.79,54,391.37,54,394s1.07,5.21,2.93,7.069    C58.79,402.93,61.37,404,64,404s5.21-1.07,7.07-2.931C72.93,399.21,74,396.63,74,394S72.93,388.79,71.07,386.93z"/>
	</g>
</g>
<g>
</g>
<g>
</g>
<g>
</g>
<g>
</g>
<g>
</g>
<g>
</g>
<g>
</g>
<g>
</g>
<g>
</g>
<g>
</g>
<g>
</g>
<g>
</g>
<g>
</g>
<g>
</g>
<g>
</g>
</svg>