<?xml version="1.0" encoding="iso-8859-1"?>
<!-- Generator: Adobe Illustrator 19.0.0, SVG Export Plug-In . SVG Version: 6.00 Build 0)  -->
<svg version="1.1" id="Capa_1" xmlns="http://www.w3.org/2000/svg" xmlns:xlink="http://www.w3.org/1999/xlink" x="0px" y="0px"
	 viewBox="0 0 480 480" style="enable-background:new 0 0 480 480; fill:#4266ff;" xml:space="preserve">
<g>
	<g>
		<g>
			<path d="M416.992,69.816l-62.64-62.768c-4.513-4.497-10.62-7.03-16.992-7.048H80C66.745,0,56,10.745,56,24v432
				c0,13.255,10.745,24,24,24h320c13.255,0,24-10.745,24-24V86.768C424.014,80.41,421.492,74.308,416.992,69.816z M408,456
				c0,4.418-3.582,8-8,8H80c-4.418,0-8-3.582-8-8V24c0-4.418,3.582-8,8-8h256v56c0,13.255,10.745,24,24,24h32V80h-32
				c-4.418,0-8-3.582-8-8V27.344l53.664,53.768c1.497,1.501,2.338,3.536,2.336,5.656V456z"/>
			<path d="M128,176h64c4.418,0,8-3.582,8-8v-16c-0.037-16.402-10.083-31.118-25.344-37.128
				c10.496-8.094,12.444-23.165,4.349-33.661s-23.165-12.444-33.661-4.349s-12.444,23.165-4.349,33.661
				c1.257,1.63,2.719,3.092,4.349,4.349C130.083,120.882,120.037,135.598,120,152v16C120,172.418,123.582,176,128,176z M160,88
				c4.418,0,8,3.582,8,8s-3.582,8-8,8s-8-3.582-8-8S155.582,88,160,88z M136,152c0-13.255,10.745-24,24-24s24,10.745,24,24v8h-48
				V152z"/>
			<path d="M232,192V56c0-4.418-3.582-8-8-8H96c-4.418,0-8,3.582-8,8v136c0,4.418,3.582,8,8,8h128C228.418,200,232,196.418,232,192z
				 M216,184H104V64h112V184z"/>
			<rect x="264" y="112" width="16" height="16"/>
			<rect x="296" y="112" width="64" height="16"/>
			<rect x="264" y="144" width="96" height="16"/>
			<rect x="104" y="232" width="272" height="16"/>
			<rect x="104" y="264" width="272" height="16"/>
			<rect x="104" y="296" width="272" height="16"/>
			<rect x="104" y="344" width="120" height="16"/>
			<rect x="256" y="344" width="120" height="16"/>
			<rect x="104" y="376" width="120" height="16"/>
			<rect x="256" y="376" width="120" height="16"/>
			<rect x="104" y="408" width="120" height="16"/>
			<rect x="256" y="408" width="120" height="16"/>
		</g>
	</g>
</g>
<g>
</g>
<g>
</g>
<g>
</g>
<g>
</g>
<g>
</g>
<g>
</g>
<g>
</g>
<g>
</g>
<g>
</g>
<g>
</g>
<g>
</g>
<g>
</g>
<g>
</g>
<g>
</g>
<g>
</g>
</svg>
