<?xml version="1.0" encoding="iso-8859-1"?>
<!-- Generator: Adobe Illustrator 19.0.0, SVG Export Plug-In . SVG Version: 6.00 Build 0)  -->
<svg version="1.1" id="Capa_1" xmlns="http://www.w3.org/2000/svg" xmlns:xlink="http://www.w3.org/1999/xlink" x="0px" y="0px"
	 viewBox="0 0 512 512" style="enable-background:new 0 0 512 512; fill:#4266ff;" xml:space="preserve">
<g>
	<g>
		<g>
			<path d="M335.3,227.9c2.149,2.188,5.307,3.055,8.271,2.27c2.965-0.785,5.28-3.1,6.065-6.065c0.785-2.965-0.082-6.122-2.27-8.271
				l-48.486-48.486c25.515-31.919,21.651-78.21-8.803-105.457s-76.888-25.957-105.783,2.937
				c-28.895,28.895-30.184,75.329-2.937,105.783c27.247,30.454,73.538,34.318,105.457,8.803L335.3,227.9z M264.533,173.354
				c-16.177,7.794-35.023,7.794-51.2,0v-7.637c1.52-12.687,12.878-21.849,25.6-20.65c6.797-0.124,13.405,2.234,18.587,6.633
				c4.326,3.381,6.901,8.528,7.013,14.017V173.354z M221.867,110.933c0-9.426,7.641-17.067,17.067-17.067S256,101.508,256,110.933
				S248.359,128,238.933,128C229.512,127.989,221.878,120.355,221.867,110.933z M268.617,138.725
				c-1.689-1.434-3.491-2.729-5.388-3.873c13.2-13.37,13.114-34.894-0.192-48.159c-13.306-13.265-34.83-13.284-48.159-0.042
				s-13.453,34.765-0.276,48.158c-9.753,5.76-16.337,15.663-17.876,26.884c-11.229-11.183-17.536-26.38-17.527-42.227
				c-0.019-27.047,18.138-50.732,44.262-57.737c26.124-7.005,53.695,4.417,67.211,27.845c13.516,23.428,9.603,53.014-9.538,72.123
				C280.031,152.729,275.555,144.516,268.617,138.725z"/>
			<path d="M207.3,232.9l-45.167,45.166L151.1,267.033c-2.151-2.178-5.304-3.037-8.262-2.251c-2.958,0.786-5.269,3.097-6.055,6.055
				s0.073,6.111,2.251,8.262l17.067,17.067c1.6,1.601,3.77,2.5,6.033,2.5s4.433-0.899,6.033-2.5l51.2-51.2
				c3.296-3.338,3.279-8.711-0.038-12.029C216.012,229.621,210.638,229.604,207.3,232.9z"/>
			<path d="M366.933,264.533h-102.4c-4.713,0-8.533,3.821-8.533,8.533c0,4.713,3.82,8.533,8.533,8.533h102.4
				c4.713,0,8.533-3.821,8.533-8.533C375.467,268.354,371.646,264.533,366.933,264.533z"/>
			<path d="M207.3,309.7l-45.167,45.166L151.1,343.833c-3.338-3.296-8.711-3.279-12.029,0.038
				c-3.317,3.317-3.334,8.691-0.038,12.029l17.067,17.067c1.6,1.601,3.77,2.5,6.033,2.5s4.433-0.899,6.033-2.5l51.2-51.2
				c3.296-3.338,3.279-8.711-0.038-12.029C216.012,306.421,210.638,306.404,207.3,309.7z"/>
			<path d="M366.933,341.333h-102.4c-4.713,0-8.533,3.82-8.533,8.533s3.82,8.533,8.533,8.533h102.4c4.713,0,8.533-3.82,8.533-8.533
				S371.646,341.333,366.933,341.333z"/>
			<path d="M207.3,386.5l-45.167,45.166L151.1,420.633c-3.338-3.296-8.711-3.279-12.029,0.038
				c-3.317,3.317-3.334,8.691-0.038,12.029l17.067,17.067c1.6,1.601,3.77,2.5,6.033,2.5s4.433-0.899,6.033-2.5l51.2-51.2
				c3.296-3.338,3.279-8.711-0.038-12.029C216.012,383.221,210.638,383.204,207.3,386.5z"/>
			<path d="M366.933,418.133h-102.4c-4.713,0-8.533,3.82-8.533,8.533s3.82,8.533,8.533,8.533h102.4c4.713,0,8.533-3.82,8.533-8.533
				S371.646,418.133,366.933,418.133z"/>
			<path d="M435.2,73.346V25.6C435.185,11.468,423.732,0.015,409.6,0H102.4C88.268,0.015,76.816,11.468,76.8,25.6v47.746
				C27.252,121.865-0.464,188.428,0.006,257.775c0.47,69.346,29.087,135.528,79.288,183.37l0.013,0.012l0.093,0.093
				c2.688,2.6,5.537,5.125,8.867,8.067c96.385,83.736,239.761,83.558,335.938-0.417c2.859-2.525,5.708-5.05,8.337-7.592l0.151-0.152
				l0.012-0.011c50.202-47.842,78.819-114.024,79.289-183.37C512.465,188.428,484.748,121.865,435.2,73.346z M76.8,413.938
				C38.092,370.46,16.818,314.211,17.067,256C16.818,197.789,38.092,141.54,76.8,98.063V413.938z M418.133,431.406
				c-1.758,1.618-3.579,3.254-5.6,5.044c-43.414,37.74-99.009,58.511-156.533,58.483c-57.687,0-113.422-20.891-156.896-58.808
				c-1.769-1.565-3.499-3.175-5.237-4.776V25.6c0.005-4.711,3.822-8.529,8.533-8.533h307.2c4.711,0.005,8.529,3.822,8.533,8.533
				V431.406z M435.2,413.933V98.063C514.845,188.291,514.845,323.704,435.2,413.933z"/>
		</g>
	</g>
</g>
<g>
</g>
<g>
</g>
<g>
</g>
<g>
</g>
<g>
</g>
<g>
</g>
<g>
</g>
<g>
</g>
<g>
</g>
<g>
</g>
<g>
</g>
<g>
</g>
<g>
</g>
<g>
</g>
<g>
</g>
</svg>
