<?xml version="1.0" encoding="iso-8859-1"?>
<!-- Generator: Adobe Illustrator 19.0.0, SVG Export Plug-In . SVG Version: 6.00 Build 0)  -->
<svg version="1.1" id="Layer_1" xmlns="http://www.w3.org/2000/svg" xmlns:xlink="http://www.w3.org/1999/xlink" x="0px" y="0px"
	 viewBox="0 0 489.2 489.2" style="enable-background:new 0 0 489.2 489.2; fill:#4266ff;" xml:space="preserve">
<g>
	<g>
		<path d="M214.8,180.65c-16.1-5.4-30.2-15.2-40.9-27.9L65.5,329.85c-0.2,0-0.3,0-0.5,0c-35.9,0-65,29.1-65,65c0,35.9,29.1,65,65,65
			c35.9,0,65-29.1,65-65c0-17.7-7.1-33.7-18.5-45.4L214.8,180.65z M65,419.05c-13.3,0-24.2-10.8-24.2-24.2
			c0-13.3,10.9-24.2,24.2-24.2c13.3,0,24.2,10.8,24.2,24.2C89.2,408.15,78.4,419.05,65,419.05z"/>
	</g>
</g>
<g>
	<g>
		<path d="M424.2,329.85c-29.4,0-54.2,19.5-62.2,46.2H154.3c1.3,6.1,2,12.3,2,18.8c0,10.8-2,21.1-5.4,30.7h216
			c11,20.4,32.5,34.4,57.3,34.4c35.9,0,65-29.1,65-65C489.2,359.05,460.1,329.85,424.2,329.85z M424.2,419.05
			c-13.3,0-24.2-10.8-24.2-24.2c0-13.3,10.8-24.2,24.2-24.2c13.3,0,24.2,10.8,24.2,24.2C448.4,408.15,437.5,419.05,424.2,419.05z"/>
	</g>
</g>
<g>
	<g>
		<path d="M299.1,128.55c6.2-10,9.9-21.7,9.9-34.3c-0.1-35.9-29.2-65-65.1-65c-35.9,0-65,29.1-65,65c0,35.9,29.1,65,65,65
			c5.1,0,10.1-0.7,14.9-1.8l104.1,170c12.2-11.1,27.5-19,44.4-22.2L299.1,128.55z M243.9,118.45c-13.3,0-24.2-10.8-24.2-24.2
			c0-13.3,10.8-24.2,24.2-24.2c13.3,0,24.2,10.8,24.2,24.2C268.1,107.55,257.3,118.45,243.9,118.45z"/>
	</g>
</g>
<g>
</g>
<g>
</g>
<g>
</g>
<g>
</g>
<g>
</g>
<g>
</g>
<g>
</g>
<g>
</g>
<g>
</g>
<g>
</g>
<g>
</g>
<g>
</g>
<g>
</g>
<g>
</g>
<g>
</g>
</svg>
