<?xml version="1.0" encoding="utf-8"?>
<!-- Generator: Adobe Illustrator 18.1.1, SVG Export Plug-In . SVG Version: 6.00 Build 0)  -->
<svg version="1.1" id="Layer_1" xmlns="http://www.w3.org/2000/svg" xmlns:xlink="http://www.w3.org/1999/xlink" x="0px" y="0px"
	 viewBox="0 0 217.7 46" enable-background="new 0 0 217.7 46" xml:space="preserve">
<path fill-rule="evenodd" clip-rule="evenodd" fill="#EE3551" d="M126.8,34.4c-6.3,0-11.4-5.1-11.4-11.4c0-6.3,5.1-11.4,11.4-11.4
	c6.3,0,11.4,5.1,11.4,11.4C138.2,29.3,133.1,34.4,126.8,34.4z M126.8,16.9c-3.4,0-6.1,2.7-6.1,6.1c0,3.4,2.7,6.1,6.1,6.1
	c3.4,0,6.1-2.7,6.1-6.1C132.9,19.7,130.1,16.9,126.8,16.9z"/>
<path fill-rule="evenodd" clip-rule="evenodd" fill="#EE3551" d="M156.7,37.7c-8.1,0-14.6-6.6-14.6-14.7c0-8.1,6.6-14.7,14.6-14.7
	c8.1,0,14.7,6.6,14.7,14.7C171.4,31.1,164.8,37.7,156.7,37.7z M156.7,13.7c-5.1,0-9.3,4.2-9.3,9.3c0,5.2,4.2,9.3,9.3,9.3
	c5.1,0,9.3-4.2,9.3-9.3C166.1,17.9,161.9,13.7,156.7,13.7z"/>
<path fill="#181417" d="M212.1,36.9V21.5c0-5.3-2.1-7.9-6.2-7.9c-6.1,0-6.2,5.2-6.3,7.7l0,0.2v15.4H194V21.4l0-0.2
	c-0.1-2.5-0.2-7.7-6.3-7.7c-4.1,0-6.2,2.7-6.2,7.9v15.4h-5.6V20.2c0-2.6,0.5-4.9,1.6-6.8c1.9-3.3,5.4-5,9.8-5c5.5,0,8.3,2.6,9.5,4.4
	c1.4-2.1,4.2-4.4,9.5-4.4c4.4,0,7.9,1.8,9.8,5c1,1.9,1.6,4.2,1.6,6.8v16.7H212.1z"/>
<path fill="#181417" d="M28.6,37.6c-9.2,0-14.9-7.7-14.9-14.8c0-7.9,6.7-14.4,14.9-14.4c8.2,0,15,6.5,15,14.5
	C43.5,30,37.8,37.6,28.6,37.6z M28.6,13.6c-5.8,0-9.3,4.9-9.3,9.4c0,4.5,3.6,9.4,9.3,9.4c5.2,0,9.4-4.3,9.4-9.5
	C37.9,18.4,34.4,13.6,28.6,13.6z"/>
<path fill-rule="evenodd" clip-rule="evenodd" fill="#010101" d="M96.6,37.6c-1.5,0-3-0.2-4.5-0.7c-6.1-1.9-10.2-7.8-10.1-14.5
	l0-0.2V0h5.6v11.4c2.6-2,5.8-3.1,9.1-3.1c8.1,0,14.7,6.6,14.7,14.7c0,3.9-1.5,7.6-4.3,10.4C104.2,36.1,100.5,37.6,96.6,37.6
	C96.6,37.6,96.6,37.6,96.6,37.6z M96.6,13.6c-0.3,0-0.6,0-0.9,0c-4.3,0.4-7.8,3.8-8.3,8c-0.3,2.7,0.5,5.4,2.2,7.4
	c1.8,2,4.3,3.2,7,3.2c0.4,0,0.8,0,1.2-0.1c4.3-0.5,7.7-4,8.1-8.3c0.3-2.7-0.6-5.2-2.4-7.2C101.7,14.7,99.2,13.6,96.6,13.6z"/>
<path fill-rule="evenodd" clip-rule="evenodd" fill="#181417" d="M62.6,37.6c-1.5,0-3-0.2-4.5-0.7C52,35.1,47.9,29.1,48,22.4l0-0.2
	V0h5.6v11.4c2.6-2,5.8-3.1,9.1-3.1c8.1,0,14.7,6.6,14.7,14.7c0,3.9-1.5,7.6-4.3,10.4C70.2,36.1,66.5,37.6,62.6,37.6
	C62.6,37.6,62.6,37.6,62.6,37.6z M62.6,13.6c-0.3,0-0.6,0-0.9,0c-4.3,0.4-7.8,3.8-8.3,8c-0.3,2.7,0.5,5.4,2.2,7.4
	c1.8,2,4.3,3.2,7,3.2c0.4,0,0.8,0,1.2-0.1c4.3-0.5,7.7-4,8.1-8.3c0.3-2.7-0.6-5.2-2.4-7.2C67.8,14.7,65.3,13.6,62.6,13.6z"/>
<path fill="#181417" d="M0,46v-5.8l0.2,0c3.2-0.2,3.2-2.5,3.2-5.9V14.6H9v19.7c0,4.2,0,6.8-3,9.3C4.3,45.1,2.1,46,0.2,46H0z"/>
<circle fill="#181417" cx="6" cy="8.5" r="3.4"/>
</svg>
