<svg height="512pt" viewBox="-4 0 511 512" width="512pt" xmlns="http://www.w3.org/2000/svg"><path d="m502.972656 69.53125v426.367188c0 8.894531-7.207031 16.101562-16.101562 16.101562h-470.269532c-8.894531 0-16.101562-7.207031-16.101562-16.101562v-426.367188c0-8.894531 7.207031-16.101562 16.101562-16.101562h470.269532c8.894531 0 16.101562 7.207031 16.101562 16.101562zm0 0" fill="#e0ffff"/><path d="m502.972656 69.53125v426.367188c0 8.894531-7.207031 16.101562-16.101562 16.101562h-235.136719v-458.570312h235.136719c8.894531 0 16.101562 7.207031 16.101562 16.101562zm0 0" fill="#beebfa"/><path d="m502.972656 69.53125v101.453125h-502.472656v-101.453125c0-8.894531 7.207031-16.101562 16.101562-16.101562h470.269532c8.894531 0 16.101562 7.207031 16.101562 16.101562zm0 0" fill="#ff7cec"/><path d="m502.972656 69.53125v101.453125h-251.238281v-117.554687h235.136719c8.894531 0 16.101562 7.207031 16.101562 16.101562zm0 0" fill="#ed3c94"/><path d="m121.476562 0c-8.890624 0-16.097656 7.207031-16.097656 16.101562v74.648438c0 8.894531 7.207032 16.101562 16.097656 16.101562 8.894532 0 16.101563-7.207031 16.101563-16.101562v-74.648438c0-8.894531-7.207031-16.101562-16.101563-16.101562zm0 0" fill="#ffde55"/><path d="m381.992188 0c-8.890626 0-16.097657 7.207031-16.097657 16.101562v74.648438c0 8.894531 7.207031 16.101562 16.097657 16.101562 8.894531 0 16.101562-7.207031 16.101562-16.101562v-74.648438c0-8.894531-7.207031-16.101562-16.101562-16.101562zm0 0" fill="#ffb83d"/><path d="m104.355469 267.851562h-49.976563c-8.890625 0-16.101562 7.207032-16.101562 16.101563 0 8.890625 7.210937 16.101563 16.101562 16.101563h49.976563c4.140625 0 7.511719 3.367187 7.511719 7.511718v7.585938c0 4.144531-3.371094 7.511718-7.511719 7.511718h-7.585938c-32.253906 0-58.492187 26.242188-58.492187 58.492188v12.425781c0 8.890625 7.210937 16.101563 16.101562 16.101563h73.59375c8.890625 0 16.097656-7.210938 16.097656-16.101563s-7.207031-16.101562-16.097656-16.101562h-57.238281c1.796875-12.761719 12.785156-22.613281 26.035156-22.613281h7.585938c21.898437 0 39.714843-17.816407 39.714843-39.714844v-7.585938c0-21.898437-17.816406-39.714844-39.714843-39.714844zm0 0" fill="#928fde"/><path d="m251.734375 278.785156c-8.089844-6.824218-18.535156-10.9375-29.925781-10.9375h-12.792969c-25.644531 0-46.5 20.867188-46.5 46.5v48.839844c0 25.640625 20.855469 46.496094 46.5 46.496094h12.792969c11.390625 0 21.835937-4.109375 29.925781-10.9375 10.132813-8.53125 16.574219-21.304688 16.574219-35.558594v-48.839844c0-14.246094-6.441406-27.027344-16.574219-35.5625zm-15.625 84.398438c0 7.878906-6.421875 14.296875-14.300781 14.296875h-12.792969c-7.890625 0-14.296875-6.417969-14.296875-14.296875v-48.835938c0-7.878906 6.40625-14.300781 14.296875-14.300781h12.792969c7.878906 0 14.300781 6.421875 14.300781 14.300781zm0 0" fill="#928fde"/><g fill="#5f5acf"><path d="m321.824219 270.878906-30.492188 21.925782c-7.21875 5.191406-8.863281 15.253906-3.675781 22.472656 5.191406 7.21875 15.253906 8.863281 22.472656 3.671875l4.996094-3.589844v78.222656c0 8.890625 7.207031 16.101563 16.101562 16.101563 8.890626 0 16.101563-7.210938 16.101563-16.101563v-109.628906c-.003906-13.09375-14.863281-20.71875-25.503906-13.074219zm0 0"/><path d="m268.308594 314.347656v48.835938c0 14.257812-6.441406 27.027344-16.574219 35.5625v-119.960938c10.132813 8.535156 16.574219 21.316406 16.574219 35.5625zm0 0"/><path d="m421.949219 266.609375h-8.40625c-23.847657 0-43.246094 19.398437-43.246094 43.246094v8.40625c0 23.847656 19.398437 43.246093 43.246094 43.246093h8.40625c3.816406 0 7.515625-.5 11.042969-1.433593v33.507812c0 8.894531 7.207031 16.101563 16.101562 16.101563 8.890625 0 16.101562-7.207032 16.101562-16.101563 0-12.65625 0-70.863281 0-83.726562 0-23.847657-19.402343-43.246094-43.246093-43.246094zm0 62.695313h-8.40625c-6.089844 0-11.042969-4.953126-11.042969-11.042969v-8.40625c0-6.089844 4.953125-11.046875 11.042969-11.046875h8.40625c6.089843 0 11.042969 4.953125 11.042969 11.046875v8.40625c0 6.089843-4.953126 11.042969-11.042969 11.042969zm0 0"/></g></svg>