<svg xmlns="http://www.w3.org/2000/svg" width="1920" height="1920" viewBox="0 0 1920 1920">
  <metadata><?xpacket begin="﻿" id="W5M0MpCehiHzreSzNTczkc9d"?>
<x:xmpmeta xmlns:x="adobe:ns:meta/" x:xmptk="Adobe XMP Core 5.6-c138 79.159824, 2016/09/14-01:09:01        ">
   <rdf:RDF xmlns:rdf="http://www.w3.org/1999/02/22-rdf-syntax-ns#">
      <rdf:Description rdf:about=""/>
   </rdf:RDF>
</x:xmpmeta>
                                                                                                    
                                                                                                    
                                                                                                    
                                                                                                    
                                                                                                    
                                                                                                    
                                                                                                    
                                                                                                    
                                                                                                    
                                                                                                    
                                                                                                    
                                                                                                    
                                                                                                    
                                                                                                    
                                                                                                    
                                                                                                    
                                                                                                    
                                                                                                    
                                                                                                    
                                                                                                    
                           
<?xpacket end="w"?></metadata>
<defs>
    <style>
      .cls-1, .cls-6 {
        fill: #e8e8e8;
      }

      .cls-1, .cls-2, .cls-3, .cls-4, .cls-5, .cls-6, .cls-7 {
        fill-rule: evenodd;
      }

      .cls-2 {
        fill: #eee;
      }

      .cls-3 {
        fill: #faf9fa;
      }

      .cls-4 {
        fill: #fff;
      }

      .cls-5 {
        fill: #f2f2f2;
      }

      .cls-6 {
        opacity: 0.2;
      }

      .cls-7 {
        fill: #f4f3f4;
      }
    </style>
  </defs>
  <path class="cls-1" d="M1577.73,1281.17a99.7,99.7,0,0,1-47.94,66.41L1018.4,1642.75a101.314,101.314,0,0,1-115.664.19L391.192,1347.6A101.908,101.908,0,0,1,341,1260V660c0-.212.015-0.42,0.016-0.632q0.012-1.743.088-3.482c0.024-.593.048-1.185,0.083-1.776,0.055-.932.13-1.862,0.212-2.791,0.07-.818.142-1.634,0.232-2.446,0.071-.633.157-1.263,0.241-1.893,0.141-1.086.289-2.168,0.465-3.242,0.05-.3.109-0.605,0.162-0.907a99.3,99.3,0,0,1,10.775-30.852c0.3-.551.627-1.088,0.939-1.633,0.456-.795.9-1.6,1.379-2.379,0.724-1.19,1.483-2.36,2.258-3.522,0.086-.128.165-0.26,0.251-0.387a99.236,99.236,0,0,1,15.391-17.822c0.12-.11.237-0.224,0.358-0.334,0.894-.808,1.813-1.6,2.741-2.374,0.378-.319.752-0.643,1.135-0.956,0.706-.576,1.429-1.135,2.154-1.693,0.654-.506,1.308-1.011,1.975-1.5,0.511-.374,1.031-0.737,1.551-1.1q1.387-.98,2.805-1.916c0.332-.217.668-0.429,1-0.643q1.735-1.11,3.518-2.15c0.1-.057.19-0.12,0.288-0.176l511.7-295.3a101.389,101.389,0,0,1,115.7.194l509.02,293.671a100.425,100.425,0,0,1,14.82,9.823c0.16,0.126.32,0.249,0.48,0.376,0.99,0.8,1.96,1.622,2.92,2.457,0.34,0.3.69,0.593,1.03,0.9,0.75,0.668,1.47,1.357,2.2,2.046,0.5,0.473,1,.94,1.49,1.421,0.55,0.552,1.09,1.122,1.64,1.687,0.6,0.623,1.2,1.242,1.79,1.878,0.45,0.49.87,1,1.31,1.5,0.63,0.717,1.27,1.429,1.87,2.161,0.45,0.541.88,1.1,1.32,1.65,0.55,0.7,1.11,1.386,1.64,2.094,0.59,0.781,1.15,1.584,1.71,2.383,0.35,0.485.7,0.961,1.04,1.452q1.275,1.883,2.47,3.829c0.02,0.034.05,0.066,0.07,0.1a99.458,99.458,0,0,1,13.32,35.439l0.09,0.5c0.19,1.169.35,2.348,0.5,3.53,0.07,0.545.15,1.088,0.21,1.634,0.1,0.87.17,1.745,0.25,2.621s0.15,1.763.2,2.647c0.04,0.618.06,1.238,0.09,1.859,0.04,1.143.08,2.287,0.08,3.433,0.01,0.212.02,0.421,0.02,0.633v599.98A100.7,100.7,0,0,1,1577.73,1281.17ZM1380,1182V726a14.992,14.992,0,0,0-9.34-13.885,18.854,18.854,0,0,0-3.03-2.209l-169.49-97.2c-9.94-5.7-18.14-2.14-18.14,8.048V1087.91L998.983,1192.42l-11.258,6.5a21.353,21.353,0,0,0-2.653,1.83l-8.089,4.67-11.258,6.5a20.908,20.908,0,0,0-3.217,2.32L763.17,1099.15l-11.258-6.5c-7.174-4.14-18.467-4.32-25.319-.34L557.666,1190.5c-9.906,5.76-10.922,14.63-2.1,19.73l13.847,7.99,59.961,34.62-0.316.24,2.084,1.2-0.136.24,306.444,176.75,4.825,2.79,12.126,7c3.27,1.89,6.311,2.34,8.849,1.59a12.944,12.944,0,0,0,6.129-1.9l4.252-2.45c0.125-.07.258-0.13,0.381-0.2l6.294-3.66,2.919-1.68,388.584-224.35-0.05-.03A15.005,15.005,0,0,0,1380,1195v-13Z"/>
  <path id="_3" data-name="3" class="cls-2" d="M353.778,1309.54A104.184,104.184,0,0,1,341,1260V832.631l818.84-472.758,367.6,212.079a100.425,100.425,0,0,1,14.82,9.823c0.16,0.126.32,0.249,0.48,0.376,0.99,0.8,1.96,1.622,2.92,2.457,0.34,0.3.69,0.593,1.03,0.9,0.75,0.668,1.47,1.357,2.2,2.046,0.5,0.473,1,.94,1.49,1.421,0.55,0.552,1.09,1.122,1.64,1.687,0.6,0.623,1.2,1.242,1.79,1.878,0.45,0.49.87,1,1.31,1.5,0.63,0.717,1.27,1.429,1.87,2.161,0.45,0.541.88,1.1,1.32,1.65,0.55,0.7,1.11,1.386,1.64,2.094,0.59,0.781,1.15,1.584,1.71,2.383,0.35,0.485.7,0.961,1.04,1.452q1.275,1.883,2.47,3.829c0.02,0.034.05,0.066,0.07,0.1,0.36,0.59.69,1.2,1.05,1.8Zm372.815-217.23L557.666,1190.5a20.175,20.175,0,0,0-5.48,4.49l182.3-105.25A21.9,21.9,0,0,0,726.593,1092.31ZM1370.66,712.115a18.854,18.854,0,0,0-3.03-2.209l-169.49-97.2c-9.94-5.7-18.14-2.14-18.14,8.048v211.77l197.86-114.233A15.038,15.038,0,0,0,1370.66,712.115Z"/>
  <path id="_4" data-name="4" class="cls-2" d="M1580,1259.98a104.25,104.25,0,0,1-13.02,50L354.456,609.927c0.374-.657.743-1.316,1.136-1.96,0.724-1.19,1.483-2.36,2.258-3.522,0.086-.128.165-0.26,0.251-0.387a99.236,99.236,0,0,1,15.391-17.822c0.12-.11.237-0.224,0.358-0.334,0.894-.808,1.813-1.6,2.741-2.374,0.378-.319.752-0.643,1.135-0.956,0.706-.576,1.429-1.135,2.154-1.693,0.654-.506,1.308-1.011,1.975-1.5,0.511-.374,1.031-0.737,1.551-1.1q1.387-.98,2.805-1.916c0.332-.217.668-0.429,1-0.643q1.735-1.11,3.518-2.15c0.1-.057.19-0.12,0.288-0.176L760.579,360.116,1197.5,612.37c-9.65-5.185-17.5-1.587-17.5,8.381V1086.56l198.63,114.68A14.8,14.8,0,0,0,1380,1195V726a14.939,14.939,0,0,0-4.96-11.123l-34.56-19.956L1580,833.209V1259.98ZM1197.5,612.37l142.98,82.551L1197.5,612.37h0Z"/>
  <path id="_2" data-name="2" class="cls-3" d="M1527.44,571.952a100.425,100.425,0,0,1,14.82,9.823c0.16,0.126.32,0.249,0.48,0.376,0.99,0.8,1.96,1.622,2.92,2.457,0.34,0.3.69,0.593,1.03,0.9,0.75,0.668,1.47,1.357,2.2,2.046,0.5,0.473,1,.94,1.49,1.421,0.55,0.552,1.09,1.122,1.64,1.687,0.6,0.623,1.2,1.242,1.79,1.878,0.45,0.49.87,1,1.31,1.5,0.63,0.717,1.27,1.429,1.87,2.161,0.45,0.541.88,1.1,1.32,1.65,0.55,0.7,1.11,1.386,1.64,2.094,0.59,0.781,1.15,1.584,1.71,2.383,0.35,0.485.7,0.961,1.04,1.452q1.275,1.883,2.47,3.829c0.02,0.034.05,0.066,0.07,0.1a99.458,99.458,0,0,1,13.32,35.439l0.09,0.5c0.19,1.169.35,2.348,0.5,3.53,0.07,0.545.15,1.088,0.21,1.634,0.1,0.87.17,1.745,0.25,2.621s0.15,1.763.2,2.647c0.04,0.618.06,1.238,0.09,1.859,0.04,1.143.08,2.287,0.08,3.433,0.01,0.212.02,0.421,0.02,0.633V833.048L760.718,360.035l142-81.948A101.448,101.448,0,0,1,1008.76,272.3l4.15,2.4c1.86,1.138,3.71,2.32,5.51,3.585Z"/>
  <path id="_1" data-name="1" class="cls-3" d="M341,832.78V660c0-.212.015-0.42,0.016-0.632q0.012-1.743.088-3.482c0.024-.593.048-1.185,0.083-1.776,0.055-.932.13-1.862,0.212-2.791,0.07-.818.142-1.634,0.232-2.446,0.071-.633.157-1.263,0.241-1.893,0.141-1.086.289-2.168,0.465-3.242,0.05-.3.109-0.605,0.162-0.907a99.3,99.3,0,0,1,10.775-30.852c0.3-.551.627-1.088,0.939-1.633,0.456-.795.9-1.6,1.379-2.379,0.724-1.19,1.483-2.36,2.258-3.522,0.086-.128.165-0.26,0.251-0.387a99.236,99.236,0,0,1,15.391-17.822c0.12-.11.237-0.224,0.358-0.334,0.894-.808,1.813-1.6,2.741-2.374,0.378-.319.752-0.643,1.135-0.956,0.706-.576,1.429-1.135,2.154-1.693,0.654-.506,1.308-1.011,1.975-1.5,0.511-.374,1.031-0.737,1.551-1.1q1.387-.98,2.805-1.916c0.332-.217.668-0.429,1-0.643q1.735-1.11,3.518-2.15c0.1-.057.19-0.12,0.288-0.176l511.7-295.3a101.389,101.389,0,0,1,115.7.194l141.62,81.7Z"/>
  <path id="_1_copy_2" data-name="1 copy 2" class="cls-4" d="M959.925,475.067L1159.45,359.906,1017.5,278.012a100.449,100.449,0,0,0-52.313-17.872c-1.3-.074-2.6-0.116-3.891-0.139-0.433-.007-0.865,0-1.3,0-0.864,0-1.727,0-2.589.017-0.516.011-1.032,0.029-1.548,0.048q-1.167.043-2.331,0.113c-0.548.034-1.095,0.067-1.642,0.109-0.748.057-1.5,0.129-2.241,0.2-0.554.055-1.11,0.1-1.664,0.168-0.785.091-1.567,0.2-2.35,0.313q-1.614.226-3.22,0.506c-0.571.1-1.144,0.192-1.712,0.3-0.75.144-1.5,0.3-2.242,0.466-0.472.1-.945,0.2-1.416,0.31q-1.179.272-2.35,0.573-0.6.155-1.2,0.317c-0.836.224-1.67,0.455-2.5,0.7-0.273.08-.543,0.167-0.815,0.25a100.615,100.615,0,0,0-12.249,4.637l-0.27.121q-1.455.668-2.891,1.385l-0.351.176q-1.466.737-2.909,1.52l-4.147,2.394q-1.342.816-2.665,1.669c-0.956.625-1.91,1.255-2.847,1.913L760.285,359.855Z"/>
  <path id="_4-2" data-name="4" class="cls-5" d="M1205.36,1533.99l324.67-187.56-324.67,187.56h0Zm328.47-189.89c-1.16.74-2.33,1.46-3.51,2.15-0.1.06-.19,0.12-0.29,0.18,0.1-.06.19-0.12,0.29-0.18C1531.5,1345.56,1532.67,1344.84,1533.83,1344.1Zm3.8-2.56c-0.92.65-1.85,1.29-2.8,1.92-0.33.21-.67,0.43-1,0.64,0.33-.21.67-0.43,1-0.64C1535.78,1342.83,1536.71,1342.19,1537.63,1341.54Zm5.68-4.3c0.38-.31.76-0.63,1.13-0.95-0.37.32-.75,0.64-1.13,0.95-0.71.58-1.43,1.14-2.15,1.7-0.66.5-1.31,1.01-1.98,1.5,0.67-.49,1.32-1,1.98-1.5C1541.88,1338.38,1542.6,1337.82,1543.31,1337.24Zm4.23-3.66c0.41-.37.78-0.77,1.18-1.15-0.4.38-.77,0.78-1.18,1.15l-0.36.33c-0.89.81-1.81,1.6-2.74,2.38,0.93-.78,1.85-1.57,2.74-2.38Zm1.18-1.15c0.31-.29.22-0.21,0.42-0.39C1548.94,1332.22,1549.03,1332.14,1548.72,1332.43Zm1.8-1.54a3.092,3.092,0,0,0,.4-0.43,2.306,2.306,0,0,1-.3.33Zm-0.15.12a0.231,0.231,0,0,0,.07-0.05c-0.06.05,0.05-.04,0,0Zm-0.16.11a0.349,0.349,0,0,0,.09-0.06c-0.05.04,0.07-.05,0,0Zm12.83-15.56c-0.04.07-.08,0.13-0.12,0.19-1.09,1.62-2.23,3.2-3.41,4.76,1.18-1.56,2.32-3.14,3.41-4.76C1562.96,1315.69,1563,1315.63,1563.04,1315.56Zm2.38-3.71c-0.72,1.19-1.48,2.36-2.25,3.52a2.141,2.141,0,0,0-.13.19,2.141,2.141,0,0,1,.13-0.19C1563.94,1314.21,1564.7,1313.04,1565.42,1311.85Zm-184.97-109.53L1580,1087.01v172.8c0,0.21-.01.42-0.02,0.63,0,1.16-.04,2.32-0.08,3.48-0.03.59-.05,1.19-0.09,1.78-0.05.93-.13,1.86-0.21,2.79-0.07.82-.14,1.63-0.23,2.44-0.07.64-.16,1.27-0.24,1.9-0.14,1.08-.29,2.17-0.47,3.24-0.05.3-.1,0.61-0.16,0.91a99.306,99.306,0,0,1-10.76,30.85c-0.3.55-.63,1.09-0.94,1.64-0.46.79-.9,1.59-1.38,2.38,0.39-.65.76-1.31,1.14-1.96ZM965.99,1441.83l313.96-181.43L965.99,1441.83h0Z"/>
  <path id="_3-2" data-name="3" class="cls-5" d="M716,1533.85L391.02,1346.34,716,1533.85h0ZM387.214,1344.01c1.157,0.74,2.329,1.46,3.518,2.15,0.1,0.06.19,0.12,0.288,0.18-0.1-.06-0.191-0.12-0.288-0.18C389.543,1345.47,388.371,1344.75,387.214,1344.01Zm-3.808-2.56q1.387,0.99,2.805,1.92c0.332,0.22.668,0.43,1,.64-0.335-.21-0.671-0.42-1-0.64Q384.791,1342.44,383.406,1341.45Zm-5.68-4.29c-0.383-.32-0.757-0.64-1.135-0.96,0.378,0.32.752,0.64,1.135,0.96,0.706,0.57,1.429,1.13,2.154,1.69,0.654,0.51,1.308,1.01,1.975,1.5-0.667-.49-1.321-0.99-1.975-1.5C379.155,1338.29,378.432,1337.73,377.726,1337.16Zm-4.234-3.67c-0.407-.37-0.783-0.77-1.183-1.14,0.4,0.37.776,0.77,1.183,1.14,0.12,0.11.237,0.23,0.358,0.34,0.894,0.81,1.813,1.59,2.741,2.37-0.928-.78-1.847-1.56-2.741-2.37C373.729,1333.72,373.612,1333.6,373.492,1333.49Zm-1.183-1.14c-0.312-.3-0.222-0.22-0.421-0.4C372.087,1332.13,372,1332.05,372.309,1332.35Zm-1.8-1.55a2.972,2.972,0,0,1-.4-0.43,2.109,2.109,0,0,0,.3.34Zm0.148,0.13a0.319,0.319,0,0,1-.07-0.06c0.057,0.06-.047-0.03,0,0Zm0.161,0.11a0.693,0.693,0,0,0-.088-0.06c0.046,0.03-.066-0.05,0,0Zm-12.841-15.56c0.04,0.07.082,0.13,0.125,0.2q1.63,2.415,3.411,4.75-1.781-2.34-3.411-4.75C358.058,1315.61,358.016,1315.55,357.976,1315.48Zm-2.384-3.71c0.724,1.19,1.483,2.36,2.258,3.52,0.043,0.06.084,0.13,0.126,0.19-0.042-.06-0.083-0.13-0.126-0.19C357.075,1314.13,356.316,1312.96,355.592,1311.77ZM540.74,1202.28L341,1087v172.74c0,0.22.015,0.43,0.016,0.64q0.012,1.74.088,3.48c0.024,0.59.048,1.18,0.083,1.77,0.055,0.94.13,1.87,0.212,2.79,0.07,0.82.142,1.64,0.232,2.45,0.071,0.63.157,1.26,0.241,1.89,0.141,1.09.289,2.17,0.465,3.24,0.05,0.31.109,0.61,0.162,0.91a99.345,99.345,0,0,0,10.775,30.85c0.3,0.55.627,1.08,0.939,1.63,0.456,0.79.9,1.6,1.379,2.38-0.393-.65-0.762-1.31-1.136-1.96ZM955.6,1441.71L641.34,1260.34,955.6,1441.71h0Z"/>
  <path id="_2-2" data-name="2" class="cls-5" d="M1205.15,385.7L1530,573.117,1205.15,385.7h0ZM1533.8,575.442q-1.725-1.109-3.51-2.149c-0.1-.057-0.19-0.119-0.29-0.176,0.1,0.057.19,0.119,0.29,0.176Q1532.075,574.333,1533.8,575.442Zm3.81,2.558c-0.92-.653-1.86-1.294-2.8-1.916-0.34-.216-0.67-0.428-1.01-0.642,0.34,0.214.67,0.426,1.01,0.642C1535.75,576.706,1536.69,577.347,1537.61,578Zm5.68,4.293c0.38,0.313.75,0.637,1.13,0.956-0.38-.319-0.75-0.643-1.13-0.956-0.71-.575-1.43-1.134-2.15-1.691-0.66-.506-1.31-1.011-1.98-1.5,0.67,0.489,1.32.994,1.98,1.5C1541.86,581.159,1542.58,581.718,1543.29,582.293Zm4.23,3.662c0.41,0.372.78,0.768,1.18,1.146-0.4-.378-0.77-0.774-1.18-1.146-0.12-.11-0.24-0.224-0.36-0.334-0.89-.808-1.81-1.593-2.74-2.372,0.93,0.779,1.85,1.564,2.74,2.372C1547.28,585.731,1547.4,585.845,1547.52,585.955Zm1.18,1.146c0.31,0.294.23,0.215,0.42,0.393C1548.93,587.316,1549.01,587.4,1548.7,587.1Zm1.8,1.544a2.568,2.568,0,0,1,.4.428,1.466,1.466,0,0,0-.3-0.331Zm-0.14-.124a0.68,0.68,0,0,1,.07.054c-0.06-.054.04,0.034,0,0Zm-0.17-.113a0.6,0.6,0,0,1,.09.062c-0.04-.034.07,0.047,0,0Zm12.84,15.55-0.12-.193q-1.635-2.418-3.41-4.748,1.77,2.328,3.41,4.748Zm2.38,3.714c-0.72-1.19-1.48-2.359-2.25-3.52a2.052,2.052,0,0,1-.13-0.194,2.052,2.052,0,0,0,.13.194C1563.93,605.313,1564.69,606.482,1565.41,607.672ZM1380.34,717.109L1580,832.334V659.67c0-.212-0.01-0.421-0.02-0.632,0-1.162-.04-2.321-0.08-3.479-0.03-.593-0.05-1.185-0.09-1.775-0.05-.932-0.13-1.861-0.21-2.79-0.07-.817-0.14-1.633-0.23-2.444-0.07-.632-0.16-1.262-0.24-1.892-0.14-1.085-.29-2.166-0.47-3.24-0.05-.3-0.11-0.6-0.16-0.906a99.008,99.008,0,0,0-10.77-30.832c-0.3-.55-0.63-1.086-0.94-1.631-0.45-.795-0.9-1.6-1.38-2.377,0.4,0.643.77,1.3,1.14,1.958ZM965.646,477.791L1279.78,659.076,965.646,477.791h0Z"/>
  <path id="_1-2" data-name="1" class="cls-5" d="M716,385.842L391.02,573.39,716,385.842h0ZM387.214,575.716q1.735-1.11,3.518-2.15c0.1-.057.19-0.12,0.288-0.176-0.1.056-.191,0.119-0.288,0.176Q388.948,574.606,387.214,575.716Zm-3.808,2.559q1.387-.98,2.805-1.916c0.332-.217.668-0.429,1-0.643-0.335.214-.671,0.426-1,0.643Q384.791,577.292,383.406,578.275Zm-5.68,4.3c-0.383.313-.757,0.637-1.135,0.956,0.378-.319.752-0.643,1.135-0.956,0.706-.576,1.429-1.135,2.154-1.693,0.654-.506,1.308-1.011,1.975-1.5-0.667.49-1.321,1-1.975,1.5C379.155,581.437,378.432,582,377.726,582.572Zm-4.234,3.664c-0.407.372-.783,0.769-1.183,1.146,0.4-.377.776-0.774,1.183-1.146,0.12-.11.237-0.224,0.358-0.334,0.894-.808,1.813-1.6,2.741-2.374-0.928.779-1.847,1.566-2.741,2.374C373.729,586.012,373.612,586.126,373.492,586.236Zm-1.183,1.146c-0.312.3-.222,0.216-0.421,0.394C372.087,587.6,372,587.677,372.309,587.382Zm-1.8,1.546a3.084,3.084,0,0,0-.4.428,1.837,1.837,0,0,1,.3-0.331Zm0.148-.124a0.262,0.262,0,0,0-.07.054c0.057-.054-0.047.034,0,0Zm0.161-.113c-0.066.047-.042,0.028-0.088,0.062,0.046-.034-0.066.047,0,0Zm-12.841,15.56c0.04-.064.082-0.129,0.125-0.193q1.63-2.419,3.411-4.751-1.781,2.33-3.411,4.751C358.058,604.122,358.016,604.187,357.976,604.251Zm-2.384,3.716c0.724-1.19,1.483-2.36,2.258-3.522,0.043-.064.084-0.129,0.126-0.194-0.042.065-.083,0.13-0.126,0.194C357.075,605.607,356.316,606.777,355.592,607.967ZM540.74,717.478L341,832.78V660c0-.212.015-0.42,0.016-0.632q0.012-1.743.088-3.482c0.024-.593.048-1.185,0.083-1.776,0.055-.932.13-1.862,0.212-2.791,0.07-.818.142-1.634,0.232-2.446,0.071-.633.157-1.263,0.241-1.893,0.141-1.086.289-2.168,0.465-3.242,0.05-.3.109-0.605,0.162-0.907a99.3,99.3,0,0,1,10.775-30.852c0.3-.551.627-1.088,0.939-1.633,0.456-.795.9-1.6,1.379-2.379-0.393.644-.762,1.3-1.136,1.96ZM955.6,478L641.34,659.406,955.6,478h0Z"/>
  <path class="cls-6" d="M1529.79,1347.58L1018.4,1642.75a101.314,101.314,0,0,1-115.664.19L391.192,1347.6a99.408,99.408,0,0,1-37.294-37.83L960,959.992,1566.85,1310.2A99.453,99.453,0,0,1,1529.79,1347.58ZM1180,1086.95v0.96L998.983,1192.42l-11.258,6.5a21.353,21.353,0,0,0-2.653,1.83l-8.089,4.67-11.258,6.5a20.908,20.908,0,0,0-3.217,2.32L763.17,1099.15l-11.258-6.5c-4.578-2.65-10.83-3.67-16.538-3.03l-183.685,106c-3.754,5.09-2.6,10.87,3.878,14.61l13.847,7.99,59.961,34.62-0.316.24,2.084,1.2-0.136.24,306.444,176.75,4.825,2.79,12.126,7c3.27,1.89,6.311,2.34,8.849,1.59a12.944,12.944,0,0,0,6.129-1.9l4.252-2.45c0.125-.07.258-0.13,0.381-0.2l6.294-3.66,2.919-1.68,388.584-224.35-0.05-.03a15.047,15.047,0,0,0,6.73-6.88Z"/>
  <path id="_4_copy_2" data-name="4 copy 2" class="cls-7" d="M1377.86,718.288a15.1,15.1,0,0,0-2.82-3.411L1197.5,612.371c-9.65-5.186-17.5-1.588-17.5,8.38v211.77L960,959.538,540.6,717.4,960,475.252,1379.4,717.4Zm0,0L1180,832.521h0l197.86-114.233h0Z"/>
</svg>
