<?xml version="1.0" encoding="iso-8859-1"?>
<!-- Generator: Adobe Illustrator 19.0.0, SVG Export Plug-In . SVG Version: 6.00 Build 0)  -->
<svg version="1.1" id="Layer_1" xmlns="http://www.w3.org/2000/svg" xmlns:xlink="http://www.w3.org/1999/xlink" x="0px" y="0px"
	 viewBox="0 0 512.625 512.625" style="enable-background:new 0 0 512.625 512.625;" xml:space="preserve">
<g>
	<g>
		<path d="M506.354,326.375C481.54,305.273,436.651,267.576,405.333,244V106.979c0-23.531-19.146-42.667-42.667-42.667h-320
			C19.146,64.313,0,83.448,0,106.979v213.333c0,23.531,19.146,42.667,42.667,42.667h214.625
			c3.565,12.277,14.788,21.333,28.208,21.333h77.167v40.781c0,12.802,10.417,23.219,23.208,23.219c6.625,0,11.583-3.115,14.75-5.458
			c31.354-23.177,79.688-63.792,105.688-85.917c2.875-2.427,6.313-7.052,6.313-15.292
			C512.625,333.406,509.188,328.781,506.354,326.375z M42.667,85.646h320c0.443,0,0.814,0.225,1.25,0.253L211.688,210.917
			c-5.583,3.625-13.417,2.938-17.083,0.688L41.424,85.897C41.858,85.871,42.227,85.646,42.667,85.646z M256,328.469v13.177H42.667
			c-11.771,0-21.333-9.573-21.333-21.333V106.979c0-3.021,0.668-5.875,1.805-8.482l158.883,130.294
			c6.208,4.052,13.354,6.188,20.646,6.188c7.25,0,14.396-2.125,21.646-6.885L382.194,98.496c1.138,2.608,1.806,5.461,1.806,8.483
			v128.38c-11.872,1.007-21.333,10.702-21.333,22.839v40.781H285.5C269.229,298.979,256,312.208,256,328.469z M491.292,341.646
			v0.073c-26.104,22.188-73,61.542-103.333,83.99c-1.521,1.115-2.063,1.26-2.083,1.271c-1.042,0-1.875-0.844-1.875-1.885v-51.448
			c0-5.896-4.771-10.667-10.667-10.667H285.5c-4.5,0-8.167-3.656-8.167-8.156v-26.354c0-4.5,3.667-8.156,8.167-8.156h87.833
			c5.896,0,10.667-4.771,10.667-10.667v-51.448c0-1.042,0.833-1.885,1.813-1.885c0.083,0.01,0.625,0.156,2.146,1.271
			c30.333,22.438,77.208,61.771,103.333,83.99C491.292,341.594,491.292,341.625,491.292,341.646z"/>
	</g>
</g>
<g>
</g>
<g>
</g>
<g>
</g>
<g>
</g>
<g>
</g>
<g>
</g>
<g>
</g>
<g>
</g>
<g>
</g>
<g>
</g>
<g>
</g>
<g>
</g>
<g>
</g>
<g>
</g>
<g>
</g>
</svg>
