<?xml version="1.0" encoding="iso-8859-1"?>
<!-- Generator: Adobe Illustrator 19.0.0, SVG Export Plug-In . SVG Version: 6.00 Build 0)  -->
<svg version="1.1" id="Capa_1" xmlns="http://www.w3.org/2000/svg" xmlns:xlink="http://www.w3.org/1999/xlink" x="0px" y="0px"
	 viewBox="0 0 512 512" style="enable-background:new 0 0 512 512;" xml:space="preserve">
<g>
	<g>
		<path d="M490.067,71.643l-49.709-49.709c-29.245-29.246-76.829-29.244-106.072,0c-5.858,5.858-5.858,15.356,0,21.214
			l14.247,14.247l-76.525,76.525c-46.641-22.182-110.66-16.618-154.116,26.836l-21.212,21.212c-5.858,5.858-5.858,15.356,0,21.214
			l77.94,77.941L3.458,487.421c-4.949,5.964-4.539,14.717,0.944,20.193c5.457,5.448,14.208,5.898,20.194,0.917l206.016-171.415
			l78.205,78.205c2.929,2.929,6.768,4.394,10.607,4.394c3.838,0,7.679-1.464,10.607-4.394l21.21-21.21
			c42.328-42.329,49.941-104.538,26.414-153.694l76.949-76.949l14.248,14.248c5.854,5.855,15.358,5.857,21.214,0
			C519.31,148.471,519.31,100.888,490.067,71.643z M130.236,381.605l65.69-79.175l13.383,13.383L130.236,381.605z M330.028,372.897
			l-10.604,10.603L205.61,269.685c-0.006-0.006-0.011-0.011-0.017-0.017l-77.091-77.091l10.605-10.606
			c39.042-39.04,105.088-43.413,147.792-0.707l43.13,43.13C370.936,265.301,371.173,331.752,330.028,372.897z M361.268,214.378
			c-3.115-3.884-6.453-7.627-10.025-11.198l-43.13-43.13c-3.386-3.386-6.84-6.534-10.352-9.454l71.985-71.987l63.644,63.644
			L361.268,214.378z M477.643,144.076L367.925,34.359c16.728-7.971,37.391-5.038,51.22,8.79l49.709,49.709
			C482.682,106.688,485.613,127.351,477.643,144.076z"/>
	</g>
</g>
<g>
</g>
<g>
</g>
<g>
</g>
<g>
</g>
<g>
</g>
<g>
</g>
<g>
</g>
<g>
</g>
<g>
</g>
<g>
</g>
<g>
</g>
<g>
</g>
<g>
</g>
<g>
</g>
<g>
</g>
</svg>
