<?xml version="1.0"?>
<svg xmlns="http://www.w3.org/2000/svg" height="512px" viewBox="-24 0 480 480" width="512px" class=""><g><path d="m312 208c-66.273438 0-120 53.726562-120 120s53.726562 120 120 120 120-53.726562 120-120c-.074219-66.242188-53.757812-119.925781-120-120zm-32 218.910156v-26.910156h-16v20.167969c-5.640625-2.96875-10.996094-6.453125-16-10.398438v-9.609375c.019531-10.714844 7.109375-20.128906 17.398438-23.113281l17.402343-4.957031 24.398438 18.308594c2.84375 2.136718 6.757812 2.136718 9.601562 0l24.398438-18.308594 17.410156 4.964844c10.285156 2.980468 17.371094 12.394531 17.390625 23.105468v9.648438c-5.003906 3.949218-10.359375 7.429687-16 10.398437v-20.207031h-16v26.910156c-20.792969 6.785156-43.207031 6.785156-64 0zm58.71875-143.34375-3.558594-7.132812c-1.023437-2.058594-2.882812-3.574219-5.101562-4.164063-2.222656-.59375-4.585938-.199219-6.5 1.074219l-11.902344 7.9375c-6.570312 4.386719-14.292969 6.726562-22.191406 6.71875h-9.464844c-.058594-17.671875 14.21875-32.046875 31.890625-32.109375 17.675781-.058594 32.050781 14.21875 32.109375 31.894531-2.296875-.558594-4.230469-2.101562-5.28125-4.21875zm-49.253906 20.433594c11.058594.011719 21.867187-3.265625 31.0625-9.40625l4.382812-2.921875c2.519532 4.445313 6.410156 7.953125 11.089844 10v10.328125c0 13.253906-10.746094 24-24 24s-24-10.746094-24-24v-8zm22.535156 48c2.6875.003906 5.367188-.265625 8-.800781v8.800781c.027344 2.277344 1.03125 4.433594 2.761719 5.921875l-10.761719 8.078125-10.761719-8.078125c1.730469-1.488281 2.734375-3.644531 2.761719-5.921875v-8.800781c2.632812.535156 5.3125.804687 8 .800781zm79.558594 42.847656c-2.113282-15.738281-13.3125-28.746094-28.558594-33.183594l-27-7.710937v-10.160156c10.035156-7.492188 15.964844-19.269531 16-31.792969v-8c4.417969 0 8-3.582031 8-8v-8c0-26.507812-21.492188-48-48-48s-48 21.492188-48 48v8c0 4.417969 3.582031 8 8 8v8c.035156 12.523438 5.964844 24.300781 16 31.792969v10.160156l-26.992188 7.710937c-15.25 4.433594-26.449218 17.445313-28.566406 33.183594-35.507812-42.175781-31.933594-104.730468 8.148438-142.585937 40.082031-37.855469 102.738281-37.855469 142.820312 0 40.082032 37.855469 43.65625 100.410156 8.148438 142.585937zm0 0" data-original="#000000" class="active-path" data-old_color="#000000" fill="#FFFFFF"/><path d="m232 320h16v16h-16zm0 0" data-original="#000000" class="active-path" data-old_color="#000000" fill="#FFFFFF"/><path d="m376 320h16v16h-16zm0 0" data-original="#000000" class="active-path" data-old_color="#000000" fill="#FFFFFF"/><path d="m328 464h-288c-13.253906 0-24-10.746094-24-24v-400c0-13.253906 10.746094-24 24-24h224v72c0 3.234375 1.949219 6.152344 4.9375 7.390625s6.429688.550781 8.71875-1.734375l18.34375-18.34375 18.34375 18.34375c2.289062 2.285156 5.730469 2.972656 8.71875 1.734375s4.9375-4.15625 4.9375-7.390625v-72c13.253906 0 24 10.746094 24 24v160h16v-160c-.027344-22.082031-17.917969-39.9726562-40-40h-288c-22.082031.0273438-39.9726562 17.917969-40 40v400c.0273438 22.082031 17.917969 39.972656 40 40h288c11.480469 0 22.40625-4.933594 30-13.542969l-12-10.585937c-4.558594 5.164062-11.113281 8.125-18 8.128906zm-16-395.3125-10.34375-10.34375c-3.125-3.121094-8.1875-3.121094-11.3125 0l-10.34375 10.34375v-52.6875h32zm0 0" data-original="#000000" class="active-path" data-old_color="#000000" fill="#FFFFFF"/><path d="m48 48h32v16h-32zm0 0" data-original="#000000" class="active-path" data-old_color="#000000" fill="#FFFFFF"/><path d="m96 48h80v16h-80zm0 0" data-original="#000000" class="active-path" data-old_color="#000000" fill="#FFFFFF"/><path d="m48 80h128v16h-128zm0 0" data-original="#000000" class="active-path" data-old_color="#000000" fill="#FFFFFF"/><path d="m48 144h208v16h-208zm0 0" data-original="#000000" class="active-path" data-old_color="#000000" fill="#FFFFFF"/><path d="m272 144h48v16h-48zm0 0" data-original="#000000" class="active-path" data-old_color="#000000" fill="#FFFFFF"/><path d="m48 192h160v16h-160zm0 0" data-original="#000000" class="active-path" data-old_color="#000000" fill="#FFFFFF"/><path d="m48 240h128v16h-128zm0 0" data-original="#000000" class="active-path" data-old_color="#000000" fill="#FFFFFF"/><path d="m48 288h112v16h-112zm0 0" data-original="#000000" class="active-path" data-old_color="#000000" fill="#FFFFFF"/><path d="m48 368h80v16h-80zm0 0" data-original="#000000" class="active-path" data-old_color="#000000" fill="#FFFFFF"/><path d="m48 400h80v16h-80zm0 0" data-original="#000000" class="active-path" data-old_color="#000000" fill="#FFFFFF"/></g> </svg>
