<?xml version="1.0" encoding="UTF-8" standalone="no"?><svg width="81" height="60" viewBox="0 0 81 60" xmlns="http://www.w3.org/2000/svg" xmlns:xlink="http://www.w3.org/1999/xlink"><svg width="21" height="20" viewBox="0 0 21 20" id="dribbble" x="25" y="20"><title>Page 1</title><path d="M14.792 17.094c-.088-.52-.543-3.02-1.662-6.09 2.68-.429 5.035.273 5.328.365a8.555 8.555 0 0 1-3.666 5.725m-4.779 1.46c-1.977 0-3.8-.673-5.25-1.802.154-.315 1.886-3.656 6.71-5.335l.056-.019c1.201 3.117 1.698 5.728 1.825 6.478a8.516 8.516 0 0 1-3.34.679M1.46 10.013c0-.087.002-.174.004-.26.375.007 4.52.06 8.79-1.216.246.478.48.964.694 1.45a9.142 9.142 0 0 0-.337.1C6.2 11.513 3.853 15.394 3.66 15.725a8.501 8.501 0 0 1-2.199-5.71m4.917-7.73a54.501 54.501 0 0 1 3.17 4.939c-4 1.061-7.524 1.046-7.906 1.04a8.575 8.575 0 0 1 4.736-5.98m3.636-.811c2.173 0 4.16.814 5.67 2.152-.154.219-1.442 1.947-4.483 3.085a45.586 45.586 0 0 0-3.191-5 8.556 8.556 0 0 1 2.004-.237m6.62 3.14a8.494 8.494 0 0 1 1.932 5.32c-.282-.06-3.11-.632-5.956-.275-.06-.146-.12-.293-.184-.44-.177-.417-.368-.83-.567-1.238 3.162-1.289 4.595-3.124 4.776-3.367M10.014 0C4.491 0 0 4.486 0 10s4.492 10 10.013 10 10.013-4.486 10.013-10S15.534 0 10.013 0" fill="#FFF" fill-rule="evenodd"/></svg><svg width="20" height="20" viewBox="0 0 20 20" id="facebook" y="40"><title>Fill 14</title><path d="M18.896 0H1.104C.494 0 0 .494 0 1.104v17.792C0 19.506.494 20 1.104 20h9.579v-7.745H8.076V9.237h2.607V7.01c0-2.584 1.577-3.99 3.882-3.99 1.104 0 2.052.082 2.329.119v2.7h-1.598c-1.254 0-1.496.596-1.496 1.47v1.927h2.989l-.39 3.018h-2.6V20h5.097c.61 0 1.104-.494 1.104-1.104V1.104C20 .494 19.506 0 18.896 0" fill="#FFF" fill-rule="evenodd"/></svg><svg width="20" height="20" viewBox="0 0 20 20" id="flipboard" x="20" y="40"><title>Fill 310</title><path d="M16 8v-.139H8.139V4H16v4zm-7.861 4H12V8.139H8.139V12zM4 16V4h3.861v12H8 4zm-4 4h20V0H0v20z" fill="#FFF" fill-rule="evenodd"/></svg><svg width="32" height="20" viewBox="0 0 32 20" id="googleplus"><title>Combined Shape</title><path d="M10 8.571V12h5.671c-.228 1.471-1.714 4.314-5.671 4.314-3.414 0-6.2-2.828-6.2-6.314S6.586 3.686 10 3.686c1.943 0 3.243.828 3.986 1.543L16.7 2.614C14.957.986 12.7 0 10 0 4.471 0 0 4.471 0 10s4.471 10 10 10c5.771 0 9.6-4.057 9.6-9.771 0-.658-.071-1.158-.157-1.658H10zm21.429 0H28.57V5.714h-2.857v2.857h-2.857v2.858h2.857v2.857h2.857v-2.857h2.858V8.57z" fill="#FFF" fill-rule="evenodd"/></svg><svg width="20" height="20" viewBox="0 0 20 20" id="instagram" x="40" y="40"><title>glyph-logo_May2016</title><g fill="#FFF" fill-rule="evenodd"><path d="M10 4.866a5.134 5.134 0 1 0 0 10.268 5.134 5.134 0 0 0 0-10.268zm0 8.466a3.332 3.332 0 1 1 0-6.664 3.332 3.332 0 0 1 0 6.664zm6.536-8.668a1.2 1.2 0 1 1-2.4 0 1.2 1.2 0 0 1 2.4 0z"/><path d="M10 1.804c2.67 0 2.985.01 4.04.059.974.044 1.504.207 1.856.344.466.181.8.398 1.15.748.35.35.566.683.747 1.15.137.351.3.88.344 1.855.048 1.055.059 1.37.059 4.04s-.01 2.985-.059 4.04c-.044.974-.207 1.504-.344 1.856-.181.466-.398.8-.748 1.15-.35.35-.683.566-1.15.747-.351.137-.88.3-1.855.344-1.054.048-1.37.059-4.04.059s-2.986-.01-4.04-.059c-.974-.044-1.504-.207-1.856-.344a3.097 3.097 0 0 1-1.15-.748 3.097 3.097 0 0 1-.747-1.15c-.137-.351-.3-.88-.344-1.855-.048-1.055-.059-1.37-.059-4.04s.01-2.985.059-4.04c.044-.974.207-1.504.344-1.856.181-.466.398-.8.748-1.15.35-.35.683-.566 1.15-.747.351-.137.88-.3 1.855-.344 1.055-.048 1.37-.059 4.04-.059m0-1.8c-2.715 0-3.055.01-4.122.06-1.064.048-1.79.217-2.426.464A4.9 4.9 0 0 0 1.68 1.681a4.9 4.9 0 0 0-1.153 1.77C.281 4.089.112 4.815.063 5.879.015 6.945.003 7.285.003 10s.012 3.055.06 4.122c.049 1.064.218 1.79.465 2.426a4.9 4.9 0 0 0 1.153 1.771 4.9 4.9 0 0 0 1.77 1.153c.637.247 1.363.416 2.427.465 1.067.048 1.407.06 4.122.06s3.055-.012 4.122-.06c1.064-.049 1.79-.218 2.426-.465a4.9 4.9 0 0 0 1.771-1.153 4.9 4.9 0 0 0 1.153-1.77c.247-.637.416-1.363.465-2.427.048-1.067.06-1.407.06-4.122s-.012-3.055-.06-4.122c-.049-1.064-.218-1.79-.465-2.426a4.9 4.9 0 0 0-1.153-1.771 4.9 4.9 0 0 0-1.77-1.153c-.637-.247-1.363-.416-2.427-.465C13.055.015 12.715.003 10 .003"/></g></svg><svg width="20" height="20" viewBox="0 0 20 20" id="pinterest" x="61"><title>Pinterest-badge-36px</title><path d="M10 0C4.476 0 0 4.476 0 9.998c0 4.236 2.635 7.855 6.355 9.311-.087-.79-.166-2.004.035-2.868.182-.78 1.172-4.97 1.172-4.97s-.299-.599-.299-1.484c0-1.39.806-2.428 1.81-2.428.853 0 1.264.64 1.264 1.408 0 .858-.546 2.14-.828 3.33-.235.994.5 1.806 1.48 1.806 1.778 0 3.144-1.874 3.144-4.579 0-2.394-1.72-4.068-4.176-4.068-2.845 0-4.515 2.134-4.515 4.34 0 .858.33 1.78.744 2.281a.299.299 0 0 1 .07.287c-.077.316-.245.995-.278 1.134-.044.183-.146.222-.335.134-1.249-.582-2.03-2.407-2.03-3.874 0-3.154 2.292-6.05 6.607-6.05 3.468 0 6.164 2.471 6.164 5.774 0 3.446-2.173 6.22-5.188 6.22-1.014 0-1.966-.527-2.292-1.149l-.623 2.377c-.226.869-.835 1.957-1.243 2.621.936.29 1.93.446 2.961.446 5.522 0 9.999-4.476 9.999-9.999C19.998 4.476 15.52 0 9.999 0" fill="#FFF" fill-rule="evenodd"/></svg><svg width="25" height="20" viewBox="0 0 25 20" id="twitter" y="20"><title>Shape</title><path d="M7.74 20C17.03 20 22.11 12.305 22.11 5.632c0-.219 0-.437-.015-.653.988-.715 1.842-1.6 2.52-2.614-.922.408-1.9.676-2.9.794a5.067 5.067 0 0 0 2.22-2.793 10.12 10.12 0 0 1-3.207 1.226 5.055 5.055 0 0 0-8.606 4.606A14.337 14.337 0 0 1 1.713.922a5.054 5.054 0 0 0 1.564 6.74 5.012 5.012 0 0 1-2.292-.631v.064a5.052 5.052 0 0 0 4.05 4.95 5.042 5.042 0 0 1-2.28.087 5.056 5.056 0 0 0 4.719 3.506A10.133 10.133 0 0 1 0 17.732a14.297 14.297 0 0 0 7.74 2.264" fill="#FFF" fill-rule="evenodd"/></svg><svg width="29" height="20" viewBox="0 0 29 20" id="youtube" x="32"><title>YouTube-icon-dark</title><g fill="none" fill-rule="evenodd"><path fill-opacity=".1" fill="#000" style="mix-blend-mode:darken" d="M18.004 10.206L11.272 5.71l7.677 4.006-.945.49"/><path d="M11.273 13.693l-.001-7.983 7.677 4.006-7.676 3.977zM28.13 4.327S27.852 2.37 27 1.507C25.92.375 24.71.37 24.154.303c-3.976-.287-9.94-.287-9.94-.287H14.2s-5.964 0-9.94.287C3.705.37 2.494.375 1.413 1.507.561 2.369.284 4.327.284 4.327S0 6.627 0 8.926v2.155c0 2.3.284 4.599.284 4.599s.277 1.958 1.13 2.82c1.08 1.132 2.5 1.096 3.132 1.215 2.273.218 9.66.285 9.66.285s5.97-.009 9.947-.296c.555-.067 1.766-.072 2.847-1.204.852-.862 1.13-2.82 1.13-2.82s.283-2.3.283-4.599V8.926c0-2.3-.284-4.599-.284-4.599z" fill="#FFF"/></g></svg></svg>