<?xml version="1.0" encoding="iso-8859-1"?>
<!-- Generator: Adobe Illustrator 19.0.0, SVG Export Plug-In . SVG Version: 6.00 Build 0)  -->
<svg version="1.1" id="Capa_1" xmlns="http://www.w3.org/2000/svg" xmlns:xlink="http://www.w3.org/1999/xlink" x="0px" y="0px"
	 viewBox="0 0 511.999 511.999" style="enable-background:new 0 0 511.999 511.999;" xml:space="preserve">
<g>
	<g>
		<path d="M471.742,72.477H40.258C18.059,72.477,0,90.536,0,112.734v286.53c0,22.199,18.059,40.258,40.258,40.258h431.483
			c22.199,0,40.258-18.06,40.258-40.258v-286.53C512,90.536,493.941,72.477,471.742,72.477z M100.774,409.506H40.258
			c-5.646-0.001-10.241-4.595-10.241-10.242v-286.53c0-5.647,4.595-10.241,10.241-10.241h60.516V409.506z M481.983,399.265
			c0,5.647-4.595,10.241-10.241,10.241h-340.95v-247.06h351.191V399.265z M481.983,132.429H130.792v-29.936h340.95
			c5.646,0,10.241,4.594,10.241,10.241V132.429z"/>
	</g>
</g>
<g>
	<g>
		<path d="M249.025,294.877c-5.935,0-9.066,1.911-9.389,5.731c-0.164,1.708-0.347,3.049-0.548,4.024
			c-0.204,0.976-0.63,2.216-1.281,3.719c-0.651,1.506-1.728,2.621-3.231,3.354c-1.505,0.731-3.396,1.098-5.67,1.098
			c-7.399,0-11.097-4.064-11.097-12.195v-32.314c-0.001-8.128,3.657-12.194,10.974-12.194c6.991,0,10.609,3.658,10.853,10.975
			c0.244,3.822,3.415,5.731,9.511,5.731c3.414,0,5.853-0.628,7.317-1.89c1.463-1.26,2.194-3.637,2.194-7.134
			c0-7.56-2.866-13.493-8.597-17.803c-5.731-4.308-13.069-6.463-22.01-6.463c-8.7,0-15.752,2.316-21.157,6.95
			c-5.407,4.634-8.11,11.91-8.11,21.827v32.314c0,9.92,2.703,17.195,8.11,21.827c5.405,4.635,12.457,6.951,21.157,6.951
			c8.942,0,16.279-2.274,22.01-6.829c5.731-4.552,8.597-10.771,8.597-18.657c0-3.494-0.731-5.872-2.194-7.134
			C255,295.508,252.52,294.877,249.025,294.877z"/>
	</g>
</g>
<g>
	<g>
		<path d="M329.505,317.316l-14.875-26.95c9.836-3.819,14.755-12.072,14.755-24.754c0-17.396-10-26.095-29.998-26.095h-25.242
			c-1.708,0-3.11,0.569-4.207,1.707c-1.098,1.14-1.647,2.48-1.647,4.023v77.556c0,1.871,0.934,3.314,2.805,4.328
			c1.869,1.018,4.104,1.524,6.707,1.524c2.6,0,4.836-0.507,6.707-1.524c1.869-1.016,2.805-2.457,2.805-4.328v-29.389h8.049
			l16.706,32.437c1.22,2.358,3.251,3.536,6.097,3.536c2.845,0,5.548-1.056,8.109-3.171c2.561-2.112,3.841-4.349,3.841-6.707
			C330.114,318.617,329.91,317.886,329.505,317.316z M307.556,276.16c-1.871,1.749-4.594,2.622-8.171,2.622h-12.072v-22.682h12.072
			c3.576,0,6.299,0.874,8.171,2.621c1.869,1.749,2.805,4.655,2.805,8.719C310.362,271.507,309.425,274.413,307.556,276.16z"/>
	</g>
</g>
<g>
	<g>
		<path d="M410.414,241.833c-1.829-1.544-4.085-2.316-6.768-2.316c-3.658,0-6.444,0.548-8.353,1.646
			c-1.911,1.098-4.045,3.72-6.402,7.865l-12.56,21.949l-12.56-21.949c-2.358-4.146-4.493-6.769-6.402-7.865
			c-1.911-1.098-4.695-1.646-8.353-1.646c-2.682,0-4.939,0.772-6.768,2.316c-1.829,1.545-2.744,3.943-2.744,7.194v73.775
			c0,1.871,0.934,3.314,2.805,4.328c1.869,1.018,4.104,1.524,6.707,1.524c2.6,0,4.836-0.507,6.707-1.524
			c1.869-1.016,2.805-2.457,2.805-4.328v-46.949l11.585,21.218c1.22,2.358,3.21,3.536,5.975,3.536c2.845,0,4.958-1.178,6.341-3.536
			l11.707-19.998v45.729c0,1.871,0.934,3.314,2.805,4.328c1.869,1.018,4.104,1.524,6.707,1.524c2.6,0,4.836-0.507,6.707-1.524
			c1.869-1.016,2.805-2.457,2.805-4.328v-73.775C413.158,245.778,412.244,243.378,410.414,241.833z"/>
	</g>
</g>
<g>
</g>
<g>
</g>
<g>
</g>
<g>
</g>
<g>
</g>
<g>
</g>
<g>
</g>
<g>
</g>
<g>
</g>
<g>
</g>
<g>
</g>
<g>
</g>
<g>
</g>
<g>
</g>
<g>
</g>
</svg>
