<?xml version="1.0" encoding="iso-8859-1"?>
<!-- Generator: Adobe Illustrator 19.0.0, SVG Export Plug-In . SVG Version: 6.00 Build 0)  -->
<svg version="1.1" id="Capa_1" xmlns="http://www.w3.org/2000/svg" xmlns:xlink="http://www.w3.org/1999/xlink" x="0px" y="0px"
	 viewBox="0 0 501.216 501.216" style="enable-background:new 0 0 501.216 501.216;" xml:space="preserve">
<g>
	<g>
		<polygon points="312.264,4.952 300.952,16.264 311.296,26.608 178.608,26.608 178.608,42.608 311.296,42.608 300.952,52.952 
			312.264,64.264 341.92,34.608 		"/>
	</g>
</g>
<g>
	<g>
		<polygon points="330.608,82.608 197.92,82.608 208.264,72.264 196.952,60.952 167.296,90.608 196.952,120.264 208.264,108.952 
			197.92,98.608 330.608,98.608 		"/>
	</g>
</g>
<g>
	<g>
		<path d="M343.104,397.48l-52.496-9.552v-4.144c19.632-11.4,34.008-30.848,38.488-53.84c14.544-3.008,25.512-15.912,25.512-31.336
			v-79.016c0-9.048-2.496-17.56-6.76-24.984h153.368l-13.36-46.752c-4.216-14.768-16.728-25.944-31.888-28.472l-21.36-3.56V110.2
			c10.216-9.136,16-21.888,16-35.592v-24c0-26.472-21.528-48-48-48s-48,21.528-48,48v24c0,13.704,5.784,26.464,16,35.592v5.624
			l-21.368,3.56c-15.152,2.52-27.664,13.704-31.88,28.472l-4.984,17.432c-18.312-17.176-42.032-26.68-67.264-26.68
			c-21.864,0-42.016,7.248-58.376,19.344l-2.88-10.096c-4.216-14.768-16.728-25.944-31.888-28.472l-21.36-3.56V110.2
			c10.216-9.136,16-21.888,16-35.592v-24c0-26.472-21.528-48-48-48s-48,21.528-48,48v24c0,13.704,5.784,26.464,16,35.592v5.624
			l-21.36,3.568c-15.152,2.52-27.664,13.704-31.88,28.472L0,194.608h156.384c-6.2,12.888-9.776,27.272-9.776,42.504v61.496
			c0,15.424,10.968,28.328,25.512,31.336c4.488,22.992,18.856,42.448,38.488,53.84v4.144l-52.496,9.544
			c-20.824,3.792-37.536,18.736-43.624,39.008l-18.632,62.128H405.36l-18.632-62.128C380.64,416.208,363.928,401.264,343.104,397.48
			z M330.608,312.384v-27.552c4.76,2.776,8,7.88,8,13.776S335.368,309.608,330.608,312.384z M332.744,152.248
			c2.528-8.856,10.04-15.56,19.128-17.08l34.736-5.776v-26.944l-3.176-2.4c-8.152-6.168-12.824-15.44-12.824-25.44v-24
			c0-17.648,14.352-32,32-32s32,14.352,32,32v24c0,10-4.672,19.272-12.824,25.44l-3.176,2.392v26.944l34.736,5.784
			c9.096,1.512,16.6,8.216,19.136,17.08l7.52,26.36H333.432c-2.208-1.568-4.552-2.968-7.024-4.176L332.744,152.248z M21.218,178.6
			l7.526-26.352c2.528-8.856,10.04-15.56,19.128-17.08l34.736-5.776v-26.944l-3.176-2.4c-8.152-6.168-12.824-15.44-12.824-25.44v-24
			c0-17.648,14.352-32,32-32s32,14.352,32,32v24c0,10-4.672,19.272-12.824,25.44l-3.176,2.392v26.944l34.736,5.784
			c9.096,1.512,16.6,8.216,19.136,17.08l4.992,17.472c-2.648,2.808-5.112,5.776-7.416,8.88H21.218z M170.608,312.384
			c-4.76-2.776-8-7.88-8-13.776s3.24-11,8-13.776V312.384z M170.608,258.608v9.136c-2.848,0.744-5.52,1.864-8,3.312v-33.944
			c0-45.488,37.008-82.504,82.504-82.504c22.032,0,42.76,8.584,58.344,24.168l7.056,7.064l2.152,0.528
			c15.28,3.816,25.944,17.48,25.944,33.224v51.464c-2.48-1.448-5.152-2.576-8-3.312v-9.136H305.24c-21.68,0-42.4-10.352-55.4-27.688
			l-6.36-8.496l-15.896,15.904c-13.088,13.08-30.48,20.28-48.976,20.28H170.608z M186.608,314.608V274.24
			c19.752-1.832,38.08-10.4,52.288-24.6l3.112-3.112c16.04,17.704,39.144,28.08,63.232,28.08h9.368v40c0,35.288-28.712,64-64,64
			C215.32,378.608,186.608,349.896,186.608,314.608z M227.288,391.12c7.384,2.256,15.208,3.488,23.32,3.488
			s15.936-1.232,23.32-3.488l-23.32,17.488L227.288,391.12z M238.432,419.472l-16.328,16.32l-10.592-31.768l5.096-0.92
			L238.432,419.472z M284.608,403.104l5.088,0.928L279.104,435.8l-16.328-16.32L284.608,403.104z M117.36,482.608l12.464-41.528
			c4.344-14.48,16.28-25.16,31.16-27.856l34.64-6.296l19.496,58.496l35.488-35.504l35.496,35.496L305.6,406.92l34.64,6.296
			c14.872,2.704,26.816,13.384,31.16,27.856l12.456,41.536H117.36z"/>
	</g>
</g>
<g>
	<g>
		<path d="M474.608,450.608c-13.232,0-24,10.768-24,24s10.768,24,24,24s24-10.768,24-24S487.84,450.608,474.608,450.608z
			 M474.608,482.608c-4.408,0-8-3.584-8-8c0-4.416,3.592-8,8-8c4.408,0,8,3.584,8,8
			C482.608,479.024,479.016,482.608,474.608,482.608z"/>
	</g>
</g>
<g>
	<g>
		<path d="M26.608,450.608c-13.232,0-24,10.768-24,24s10.768,24,24,24s24-10.768,24-24S39.84,450.608,26.608,450.608z
			 M26.608,482.608c-4.408,0-8-3.584-8-8c0-4.416,3.592-8,8-8s8,3.584,8,8C34.608,479.024,31.016,482.608,26.608,482.608z"/>
	</g>
</g>
<g>
	<g>
		<rect x="18.608" y="418.608" width="16" height="16"/>
	</g>
</g>
<g>
	<g>
		<rect x="18.608" y="386.608" width="16" height="16"/>
	</g>
</g>
<g>
	<g>
		<rect x="18.608" y="354.608" width="16" height="16"/>
	</g>
</g>
<g>
	<g>
		<rect x="466.608" y="418.608" width="16" height="16"/>
	</g>
</g>
<g>
	<g>
		<rect x="466.608" y="386.608" width="16" height="16"/>
	</g>
</g>
<g>
	<g>
		<rect x="466.608" y="354.608" width="16" height="16"/>
	</g>
</g>
<g>
</g>
<g>
</g>
<g>
</g>
<g>
</g>
<g>
</g>
<g>
</g>
<g>
</g>
<g>
</g>
<g>
</g>
<g>
</g>
<g>
</g>
<g>
</g>
<g>
</g>
<g>
</g>
<g>
</g>
</svg>
